<?xml version="1.0" encoding="utf-8"?><svg viewBox="0 0 788 520" xmlns="http://www.w3.org/2000/svg" xmlns:xlink="http://www.w3.org/1999/xlink"><style>:root>svg{display:none}:root>svg:target{display:block}</style><svg fill="none" viewBox="0 0 113 35" id="airbnb-logo" xmlns="http://www.w3.org/2000/svg"><g clip-path="url(#aclip0)"><path d="M32.14 24.722c-.175-.425-.34-.872-.516-1.254l-.813-1.82-.033-.033c-2.418-5.232-5.002-10.552-7.739-15.784l-.11-.218c-.274-.512-.55-1.08-.835-1.602-.352-.622-.693-1.287-1.253-1.919a5.82 5.82 0 00-2.014-1.56 5.867 5.867 0 00-4.986 0 5.82 5.82 0 00-2.014 1.56c-.517.632-.901 1.297-1.253 1.919-.275.566-.55 1.122-.835 1.635l-.11.218c-2.693 5.232-5.32 10.552-7.739 15.784l-.066.065c-.242.567-.527 1.156-.802 1.788-.176.382-.352.796-.528 1.254a7.355 7.355 0 001.064 7.269A7.468 7.468 0 004.61 34.32a7.53 7.53 0 003.799.496 9.264 9.264 0 003.495-1.2c1.43-.795 2.803-1.95 4.342-3.618 1.539 1.668 2.946 2.823 4.342 3.63a9.269 9.269 0 004.419 1.253 7.5 7.5 0 004.91-1.8 7.385 7.385 0 002.51-4.555 6.425 6.425 0 00-.286-3.815v.01zm-15.784 1.81c-1.89-2.399-3.122-4.6-3.54-6.486a5.624 5.624 0 01-.11-2.137 3.377 3.377 0 01.572-1.46c.66-.95 1.814-1.538 3.078-1.538.6-.018 1.196.112 1.733.378.537.267 1 .661 1.345 1.148.286.436.494.916.56 1.472.11.632.066 1.363-.11 2.137-.417 1.853-1.648 4.076-3.528 6.485zm14.004 1.613a5.166 5.166 0 01-1.044 2.465 5.228 5.228 0 01-2.144 1.623c-.835.348-1.758.446-2.66.348a6.92 6.92 0 01-2.66-.915 17.151 17.151 0 01-3.99-3.38c2.308-2.834 3.704-5.417 4.232-7.717a8.48 8.48 0 00.176-2.976 6 6 0 00-.945-2.398 5.879 5.879 0 00-2.156-1.854 5.932 5.932 0 00-2.78-.632c-2.034 0-3.847.938-4.947 2.475a5.619 5.619 0 00-.934 2.409c-.143.916-.11 1.93.176 2.976.528 2.3 1.957 4.916 4.232 7.74a15.717 15.717 0 01-3.99 3.4 6.955 6.955 0 01-2.66.905 5.265 5.265 0 01-3.844-1.026 5.18 5.18 0 01-2.004-3.41c-.11-.873-.033-1.745.319-2.726.11-.349.274-.697.45-1.112.242-.566.528-1.155.803-1.744l.044-.076a355.417 355.417 0 017.661-15.708l.11-.218c.275-.523.55-1.08.836-1.602.285-.556.593-1.09.989-1.526.342-.406.77-.732 1.254-.956a3.675 3.675 0 014.34.956c.386.436.704.97.99 1.526.275.523.55 1.09.836 1.602l.11.218a430.503 430.503 0 017.694 15.708l.033.033c.286.566.528 1.199.803 1.744.175.425.351.763.461 1.123.21.98.319 1.853.21 2.725zm15.301-1.853a5.557 5.557 0 01-2.4-.507 5.511 5.511 0 01-1.942-1.488 7.104 7.104 0 01-1.758-4.884 7.55 7.55 0 011.824-4.992 5.822 5.822 0 012.016-1.507 5.867 5.867 0 012.47-.52 4.759 4.759 0 012.306.524 4.714 4.714 0 011.76 1.568l.11-1.711h3.21v13.168h-3.22l-.11-1.919a4.953 4.953 0 01-1.836 1.684 5.002 5.002 0 01-2.43.584zm.836-3.14c.637 0 1.198-.174 1.726-.49.483-.35.879-.807 1.187-1.363.275-.556.417-1.22.417-1.962a3.701 3.701 0 00-.366-1.869 3.738 3.738 0 00-1.25-1.445 3.263 3.263 0 00-3.429 0 4.1 4.1 0 00-1.187 1.363 4.34 4.34 0 00-.418 1.962 3.7 3.7 0 00.367 1.868c.283.581.714 1.08 1.249 1.446.517.316 1.077.49 1.704.49zm12.256-13.93c0 .38-.066.73-.242 1.013a2.054 2.054 0 01-.736.698c-.319.174-.66.24-1.011.24-.352 0-.704-.066-1.023-.24a2.016 2.016 0 01-.736-.698 1.97 1.97 0 01-.242-1.014c0-.392.077-.741.242-1.014.176-.327.428-.523.736-.697.32-.175.66-.251 1.023-.251a2.036 2.036 0 011.758.938c.16.317.24.67.231 1.024zm-3.737 16.677V12.753h3.495v13.168h-3.506l.01-.022zm12.839-9.701v.043c-.165-.076-.385-.109-.55-.142-.22-.043-.396-.043-.604-.043-.979 0-1.715.283-2.199.872-.527.6-.77 1.439-.77 2.518v6.464h-3.506V12.742h3.22l.11 1.995c.352-.698.77-1.221 1.364-1.613a3.429 3.429 0 011.99-.545c.252 0 .494.021.703.065.11.033.176.033.242.065v3.489zm1.407 9.701V7.346h3.495v7.086a5.533 5.533 0 011.76-1.505 5.56 5.56 0 013.59-.436 5.525 5.525 0 013.092 1.864 7.104 7.104 0 011.76 4.895 7.549 7.549 0 01-1.826 4.992 5.822 5.822 0 01-2.015 1.508 5.868 5.868 0 01-2.47.52 4.759 4.759 0 01-2.306-.525 4.715 4.715 0 01-1.76-1.568l-.11 1.711-3.21.033v-.022zm6.76-2.747c.627 0 1.187-.174 1.715-.49.484-.35.88-.807 1.187-1.363.286-.556.418-1.22.418-1.962 0-.73-.132-1.395-.418-1.951a4.097 4.097 0 00-1.187-1.363 3.263 3.263 0 00-3.43 0c-.494.349-.88.807-1.198 1.363a4.34 4.34 0 00-.418 1.962 3.7 3.7 0 00.367 1.868c.283.581.714 1.08 1.25 1.446.516.316 1.076.49 1.714.49zm8.255 2.758V12.742h3.221l.11 1.711a4.338 4.338 0 011.663-1.555 4.383 4.383 0 012.228-.505 4.534 4.534 0 012.504.702 4.48 4.48 0 011.695 1.958c.385.829.594 1.853.594 2.998v7.892h-3.507v-7.434c0-.916-.209-1.636-.626-2.17-.418-.523-.99-.806-1.715-.806-.528 0-.99.109-1.396.349a2.73 2.73 0 00-.945 1.013c-.245.452-.366.96-.352 1.472v7.543h-3.474zm13.763 0V7.335h3.506v7.086a5.122 5.122 0 011.805-1.51 5.162 5.162 0 012.295-.55 5.558 5.558 0 012.401.506 5.514 5.514 0 011.941 1.488 7.127 7.127 0 011.748 4.884 7.537 7.537 0 01-1.825 4.992 5.813 5.813 0 01-2.015 1.508 5.87 5.87 0 01-2.47.52 4.757 4.757 0 01-2.306-.525 4.716 4.716 0 01-1.761-1.568l-.099 1.711-3.22.033zm6.793-2.758a3.21 3.21 0 001.715-.49c.494-.35.879-.807 1.198-1.363.275-.556.417-1.22.417-1.962a3.702 3.702 0 00-.366-1.869 3.747 3.747 0 00-1.249-1.445 3.265 3.265 0 00-3.43 0 4.099 4.099 0 00-1.187 1.363 3.927 3.927 0 00-.418 1.962 3.702 3.702 0 00.367 1.868c.283.581.714 1.08 1.249 1.446.517.316 1.044.49 1.704.49z" fill="#FF385C"/></g><defs><clipPath id="aclip0"><path fill="#fff" d="M0 0h112.121v34.882H0z"/></clipPath></defs></svg><svg fill="none" viewBox="0 0 72 72" id="feature-icon-1" xmlns="http://www.w3.org/2000/svg"><path d="M29.895 42.695l8.168-24.505a1.733 1.733 0 00-3.288-1.096L26.607 41.6a1.733 1.733 0 003.288 1.096zM42.137 35.093a5.204 5.204 0 005.198-5.198 5.204 5.204 0 00-5.198-5.199 5.204 5.204 0 00-5.199 5.199 5.204 5.204 0 005.199 5.198zm0-6.931c.955 0 1.733.777 1.733 1.733 0 .955-.778 1.732-1.733 1.732a1.735 1.735 0 01-1.733-1.732c0-.956.777-1.733 1.733-1.733zM22.533 24.696a5.204 5.204 0 00-5.198 5.199 5.204 5.204 0 005.198 5.198 5.204 5.204 0 005.198-5.198 5.204 5.204 0 00-5.198-5.199zm0 6.931a1.735 1.735 0 01-1.733-1.732c0-.956.778-1.733 1.733-1.733.956 0 1.733.777 1.733 1.733 0 .955-.777 1.732-1.733 1.732z" fill="#00ECD0"/><path d="M71.578 26.156l-7.356-9.807.287-2.009a2.11 2.11 0 00-.596-1.79l-4.475-4.475 4.475-4.474A2.11 2.11 0 1060.93.618l-4.475 4.474L51.98.618A2.112 2.112 0 0050.19.02L29.31 3.004a2.11 2.11 0 00-1.194.597L2.262 29.454c-3.016 3.016-3.016 7.923 0 10.938L24.138 62.27c.447.447.937.827 1.456 1.141v.856c0 4.264 3.47 7.734 7.734 7.734h30.938C68.53 72 72 68.53 72 64.266V27.422c0-.457-.148-.9-.422-1.266zM5.245 37.41a3.52 3.52 0 010-4.972L30.6 7.08l19.142-2.734 3.729 3.729-2.983 2.983-1.492-1.492a2.11 2.11 0 00-2.983 2.983l5.966 5.966c.412.412.952.618 1.492.618s1.08-.206 1.491-.617a2.11 2.11 0 000-2.984l-1.491-1.491 2.983-2.983 3.729 3.729-2.735 19.141-25.356 25.357a3.492 3.492 0 01-2.486 1.03c-.94 0-1.822-.367-2.486-1.03L5.245 37.409zM67.78 64.266a3.52 3.52 0 01-3.515 3.515H33.328a3.52 3.52 0 01-3.505-3.256 7.704 7.704 0 005.253-2.256l25.853-25.854a2.11 2.11 0 00.597-1.193l1.852-12.967 4.403 5.87v36.14z" fill="#005FEC"/></svg><svg fill="none" viewBox="0 0 56 72" id="feature-icon-2" xmlns="http://www.w3.org/2000/svg"><mask id="ca" fill="#fff"><path d="M55.462 32.978a7.837 7.837 0 00-.719-4.88 7.843 7.843 0 00.718-4.879 7.838 7.838 0 00-2.343-4.339 7.836 7.836 0 00-.994-4.83 7.84 7.84 0 00-3.687-3.277 7.841 7.841 0 00-2.585-4.2 7.842 7.842 0 00-4.585-1.816A7.838 7.838 0 0037.4 1.695a7.839 7.839 0 00-4.93-.14A7.84 7.84 0 0027.79 0a7.84 7.84 0 00-4.68 1.555 7.84 7.84 0 00-4.93.14 7.845 7.845 0 00-3.867 3.062 7.844 7.844 0 00-4.585 1.817 7.84 7.84 0 00-2.585 4.2 7.84 7.84 0 00-3.687 3.275 7.839 7.839 0 00-.994 4.831A7.838 7.838 0 00.12 23.219a7.839 7.839 0 00.718 4.88 7.837 7.837 0 00-.718 4.879 7.838 7.838 0 002.343 4.34 7.84 7.84 0 00.994 4.83 7.842 7.842 0 003.687 3.275 7.847 7.847 0 001.463 3.04l-6.18 12.932a2.11 2.11 0 002.37 2.967l9.309-2.11 4.205 8.568A2.11 2.11 0 0020.204 72h.01a2.11 2.11 0 001.893-1.2l5.683-11.892L33.473 70.8a2.109 2.109 0 001.892 1.2h.011a2.11 2.11 0 001.894-1.18l4.205-8.569 9.308 2.111a2.11 2.11 0 002.37-2.967l-6.18-12.933a7.847 7.847 0 001.464-3.039 7.837 7.837 0 003.687-3.275 7.844 7.844 0 00.994-4.83 7.842 7.842 0 002.343-4.34zm-4.866-3.581c.63.806.888 1.844.711 2.848a3.618 3.618 0 01-1.642 2.434 2.11 2.11 0 00-.889 2.44 3.614 3.614 0 01-.306 2.92 3.615 3.615 0 01-2.375 1.724 2.11 2.11 0 00-1.67 1.99 3.617 3.617 0 01-1.286 2.638c-.781.656-1.81.951-2.822.809a2.109 2.109 0 00-2.248 1.298 3.614 3.614 0 01-2.112 2.04 3.616 3.616 0 01-2.928-.205 2.109 2.109 0 00-2.558.45 3.616 3.616 0 01-2.681 1.195 3.616 3.616 0 01-2.682-1.194 2.107 2.107 0 00-2.557-.451c-.902.48-1.97.554-2.928.205a3.617 3.617 0 01-2.112-2.04 2.11 2.11 0 00-2.248-1.298 3.616 3.616 0 01-2.823-.809 3.617 3.617 0 01-1.286-2.639 2.11 2.11 0 00-1.67-1.989A3.617 3.617 0 017.11 40.04a3.619 3.619 0 01-.306-2.92 2.11 2.11 0 00-.888-2.44 3.616 3.616 0 01-1.642-2.434 3.616 3.616 0 01.71-2.848 2.11 2.11 0 000-2.596 3.615 3.615 0 01-.71-2.85 3.615 3.615 0 011.642-2.433 2.11 2.11 0 00.888-2.44 3.619 3.619 0 01.306-2.92 3.616 3.616 0 012.376-1.724 2.11 2.11 0 001.669-1.99 3.617 3.617 0 011.286-2.638 3.616 3.616 0 012.823-.809A2.109 2.109 0 0017.51 7.7a3.618 3.618 0 012.111-2.04 3.613 3.613 0 012.929.205 2.11 2.11 0 002.557-.45 3.617 3.617 0 012.682-1.195c1.02 0 1.998.435 2.681 1.194a2.11 2.11 0 002.558.451 3.617 3.617 0 012.928-.205 3.614 3.614 0 012.111 2.04 2.11 2.11 0 002.25 1.298 3.617 3.617 0 012.822.809 3.616 3.616 0 011.286 2.639 2.11 2.11 0 001.67 1.989c.998.212 1.865.841 2.374 1.725.51.884.622 1.948.307 2.92-.299.92.067 1.926.888 2.44a3.616 3.616 0 011.642 2.433 3.615 3.615 0 01-.71 2.848 2.109 2.109 0 00-.001 2.597zm-9.813 28.371a2.11 2.11 0 00-2.36 1.128l-3.021 6.156-4.534-9.488a7.847 7.847 0 001.603-.922 7.84 7.84 0 004.93-.14 7.842 7.842 0 003.866-3.061 7.86 7.86 0 002.233-.462l3.97 8.306-6.687-1.517zm-23.625 1.128a2.11 2.11 0 00-2.36-1.128L8.11 59.284l3.969-8.306c.716.261 1.469.418 2.233.463a7.84 7.84 0 003.867 3.061 7.84 7.84 0 004.93.14c.497.37 1.035.68 1.602.922l-4.534 9.487-3.02-6.155z"/></mask><path d="M55.462 32.978a7.837 7.837 0 00-.719-4.88 7.843 7.843 0 00.718-4.879 7.838 7.838 0 00-2.343-4.339 7.836 7.836 0 00-.994-4.83 7.84 7.84 0 00-3.687-3.277 7.841 7.841 0 00-2.585-4.2 7.842 7.842 0 00-4.585-1.816A7.838 7.838 0 0037.4 1.695a7.839 7.839 0 00-4.93-.14A7.84 7.84 0 0027.79 0a7.84 7.84 0 00-4.68 1.555 7.84 7.84 0 00-4.93.14 7.845 7.845 0 00-3.867 3.062 7.844 7.844 0 00-4.585 1.817 7.84 7.84 0 00-2.585 4.2 7.84 7.84 0 00-3.687 3.275 7.839 7.839 0 00-.994 4.831A7.838 7.838 0 00.12 23.219a7.839 7.839 0 00.718 4.88 7.837 7.837 0 00-.718 4.879 7.838 7.838 0 002.343 4.34 7.84 7.84 0 00.994 4.83 7.842 7.842 0 003.687 3.275 7.847 7.847 0 001.463 3.04l-6.18 12.932a2.11 2.11 0 002.37 2.967l9.309-2.11 4.205 8.568A2.11 2.11 0 0020.204 72h.01a2.11 2.11 0 001.893-1.2l5.683-11.892L33.473 70.8a2.109 2.109 0 001.892 1.2h.011a2.11 2.11 0 001.894-1.18l4.205-8.569 9.308 2.111a2.11 2.11 0 002.37-2.967l-6.18-12.933a7.847 7.847 0 001.464-3.039 7.837 7.837 0 003.687-3.275 7.844 7.844 0 00.994-4.83 7.842 7.842 0 002.343-4.34zm-4.866-3.581c.63.806.888 1.844.711 2.848a3.618 3.618 0 01-1.642 2.434 2.11 2.11 0 00-.889 2.44 3.614 3.614 0 01-.306 2.92 3.615 3.615 0 01-2.375 1.724 2.11 2.11 0 00-1.67 1.99 3.617 3.617 0 01-1.286 2.638c-.781.656-1.81.951-2.822.809a2.109 2.109 0 00-2.248 1.298 3.614 3.614 0 01-2.112 2.04 3.616 3.616 0 01-2.928-.205 2.109 2.109 0 00-2.558.45 3.616 3.616 0 01-2.681 1.195 3.616 3.616 0 01-2.682-1.194 2.107 2.107 0 00-2.557-.451c-.902.48-1.97.554-2.928.205a3.617 3.617 0 01-2.112-2.04 2.11 2.11 0 00-2.248-1.298 3.616 3.616 0 01-2.823-.809 3.617 3.617 0 01-1.286-2.639 2.11 2.11 0 00-1.67-1.989A3.617 3.617 0 017.11 40.04a3.619 3.619 0 01-.306-2.92 2.11 2.11 0 00-.888-2.44 3.616 3.616 0 01-1.642-2.434 3.616 3.616 0 01.71-2.848 2.11 2.11 0 000-2.596 3.615 3.615 0 01-.71-2.85 3.615 3.615 0 011.642-2.433 2.11 2.11 0 00.888-2.44 3.619 3.619 0 01.306-2.92 3.616 3.616 0 012.376-1.724 2.11 2.11 0 001.669-1.99 3.617 3.617 0 011.286-2.638 3.616 3.616 0 012.823-.809A2.109 2.109 0 0017.51 7.7a3.618 3.618 0 012.111-2.04 3.613 3.613 0 012.929.205 2.11 2.11 0 002.557-.45 3.617 3.617 0 012.682-1.195c1.02 0 1.998.435 2.681 1.194a2.11 2.11 0 002.558.451 3.617 3.617 0 012.928-.205 3.614 3.614 0 012.111 2.04 2.11 2.11 0 002.25 1.298 3.617 3.617 0 012.822.809 3.616 3.616 0 011.286 2.639 2.11 2.11 0 001.67 1.989c.998.212 1.865.841 2.374 1.725.51.884.622 1.948.307 2.92-.299.92.067 1.926.888 2.44a3.616 3.616 0 011.642 2.433 3.615 3.615 0 01-.71 2.848 2.109 2.109 0 00-.001 2.597zm-9.813 28.371a2.11 2.11 0 00-2.36 1.128l-3.021 6.156-4.534-9.488a7.847 7.847 0 001.603-.922 7.84 7.84 0 004.93-.14 7.842 7.842 0 003.866-3.061 7.86 7.86 0 002.233-.462l3.97 8.306-6.687-1.517zm-23.625 1.128a2.11 2.11 0 00-2.36-1.128L8.11 59.284l3.969-8.306c.716.261 1.469.418 2.233.463a7.84 7.84 0 003.867 3.061 7.84 7.84 0 004.93.14c.497.37 1.035.68 1.602.922l-4.534 9.487-3.02-6.155z" fill="#005FEC" stroke="#fff" mask="url(#ca)"/><path d="M25.473 32.876l.177.176.176-.176 10.438-10.438a2.629 2.629 0 013.716 3.717L27.508 38.628a2.63 2.63 0 01-3.717 0l-7.771-7.772h0a2.627 2.627 0 010-3.716h0a2.627 2.627 0 013.716 0h0l5.737 5.736z" fill="#00ECD0" stroke="#fff" stroke-width=".5"/></svg><svg fill="none" viewBox="0 0 72 72" id="feature-icon-3" xmlns="http://www.w3.org/2000/svg"><path d="M59.812 44.9a28.825 28.825 0 004.762-15.903C64.574 13.007 51.566 0 35.577 0S6.58 13.008 6.58 28.997A28.829 28.829 0 0011.342 44.9L0 61.44l12.979-2.42L15.399 72l10.696-15.6a28.87 28.87 0 009.482 1.593c3.32 0 6.51-.561 9.482-1.593L55.756 72l2.42-12.979 12.978 2.42L59.812 44.9zM17.692 61.15l-1.32-7.08-7.079 1.321 4.777-6.967a29.186 29.186 0 008.06 6.256l-4.438 6.47zm-6.868-32.154c0-13.65 11.104-24.754 24.753-24.754 13.65 0 24.754 11.105 24.754 24.754 0 13.65-11.105 24.754-24.754 24.754-13.649 0-24.753-11.105-24.753-24.754zM54.782 54.07l-1.32 7.08-4.437-6.47a29.186 29.186 0 008.06-6.256l4.776 6.966-7.08-1.32z" fill="#005FEC"/><path d="M30.408 34.365l-6.9-6.899-3 3 9.9 9.9 20.239-20.238-3-3-17.239 17.237z" fill="#00ECD0"/></svg><svg fill="none" viewBox="0 0 100 31" id="fedex-logo" xmlns="http://www.w3.org/2000/svg"><g clip-path="url(#eclip0)"><path d="M74.45 29.496l8.312-9.206-8.312-9.206h8.77l4.116 4.472 3.964-4.472h8.464l-8.272 9.168 8.385 9.244h-8.805l-4.08-4.51-4.04 4.51H74.45zM74.45 6.956h-9.413v4.128h9.413v6.22h-9.413v5.71h9.413v6.482H58.118V.492H74.45v6.464z" fill="#F60"/><path d="M51.228.492v11.87h-.076c-1.525-1.729-3.43-2.33-5.642-2.33-4.53 0-7.941 3.036-9.139 7.049-1.366-4.422-4.888-7.131-10.112-7.131-4.241 0-7.59 1.877-9.339 4.935v-3.801H8.152V6.957h9.569V.492H.337v29.004h7.815V17.304h7.79a11.403 11.403 0 00-.356 2.866c0 6.05 4.69 10.296 10.673 10.296 5.033 0 8.349-2.329 10.103-6.575h-6.698c-.906 1.276-1.593 1.655-3.405 1.655-2.1 0-3.91-1.807-3.91-3.948h13.638c.591 4.806 4.389 8.95 9.6 8.95a6.703 6.703 0 005.565-2.93h.076v1.877h6.89V.492h-6.89zM22.566 17.39c.434-1.842 1.884-3.046 3.694-3.046 1.991 0 3.367 1.167 3.73 3.046h-7.424zm24.481 7.69c-2.54 0-4.118-2.333-4.118-4.768 0-2.604 1.373-5.107 4.118-5.107 2.847 0 3.98 2.503 3.98 5.107 0 2.468-1.201 4.768-3.98 4.768z" fill="#652C8F"/></g><defs><clipPath id="eclip0"><path fill="#fff" transform="translate(.337 .492)" d="M0 0h99.663v29.899H0z"/></clipPath></defs></svg><svg fill="none" viewBox="0 0 105 35" id="google-logo" xmlns="http://www.w3.org/2000/svg"><g clip-path="url(#fclip0)"><path d="M44.761 17.889c0 4.841-3.843 8.41-8.56 8.41-4.717 0-8.56-3.569-8.56-8.41 0-4.877 3.843-8.41 8.56-8.41 4.717 0 8.56 3.534 8.56 8.41zm-3.747 0c0-3.026-2.227-5.096-4.813-5.096-2.585 0-4.813 2.07-4.813 5.096 0 2.995 2.228 5.095 4.813 5.095 2.586 0 4.813-2.104 4.813-5.096z" fill="#EA4335"/><path d="M63.228 17.889c0 4.841-3.843 8.41-8.56 8.41-4.717 0-8.56-3.569-8.56-8.41 0-4.873 3.843-8.41 8.56-8.41 4.717 0 8.56 3.534 8.56 8.41zm-3.747 0c0-3.026-2.227-5.096-4.813-5.096-2.585 0-4.813 2.07-4.813 5.096 0 2.995 2.228 5.095 4.813 5.095 2.586 0 4.813-2.104 4.813-5.096z" fill="#FBBC05"/><path d="M80.926 9.987v15.098c0 6.21-3.716 8.747-8.11 8.747-4.136 0-6.625-2.726-7.564-4.956l3.263-1.338c.58 1.369 2.004 2.984 4.297 2.984 2.812 0 4.555-1.71 4.555-4.93v-1.209h-.13c-.84 1.02-2.455 1.911-4.494 1.911-4.267 0-8.176-3.662-8.176-8.375 0-4.747 3.91-8.44 8.176-8.44 2.035 0 3.65.89 4.493 1.88h.131V9.991h3.559v-.004zm-3.293 7.932c0-2.961-2.005-5.126-4.555-5.126-2.586 0-4.752 2.165-4.752 5.126 0 2.93 2.166 5.065 4.752 5.065 2.55 0 4.555-2.134 4.555-5.065z" fill="#4285F4"/><path d="M86.793 1.137v24.645h-3.655V1.137h3.655z" fill="#34A853"/><path d="M101.036 20.656l2.909 1.911c-.939 1.369-3.201 3.727-7.11 3.727-4.848 0-8.468-3.693-8.468-8.41 0-5 3.65-8.409 8.048-8.409 4.429 0 6.595 3.473 7.303 5.35l.388.955-11.407 4.656c.873 1.688 2.231 2.548 4.136 2.548 1.908 0 3.231-.925 4.201-2.328zm-8.953-3.025l7.626-3.12c-.42-1.051-1.682-1.783-3.167-1.783-1.904 0-4.555 1.657-4.459 4.903z" fill="#EA4335"/><path d="M13.806 15.7v-3.567h12.2c.12.622.18 1.357.18 2.154 0 2.676-.742 5.986-3.135 8.345-2.327 2.388-5.301 3.662-9.24 3.662-7.303 0-13.443-5.861-13.443-13.058C.368 6.04 6.508.178 13.81.178c4.04 0 6.918 1.562 9.08 3.598l-2.555 2.518c-1.55-1.433-3.65-2.548-6.529-2.548-5.332 0-9.503 4.235-9.503 9.49s4.17 9.49 9.503 9.49c3.459 0 5.429-1.368 6.69-2.612 1.024-1.008 1.697-2.45 1.963-4.417l-8.653.004z" fill="#4285F4"/></g><defs><clipPath id="fclip0"><path fill="#fff" transform="translate(.229)" d="M0 0h104.646v34.882H0z"/></clipPath></defs></svg><svg fill="none" viewBox="0 0 16 14" id="heart-icon" xmlns="http://www.w3.org/2000/svg"><path fill-rule="evenodd" clip-rule="evenodd" d="M14.677 1.3c-1.763-1.733-4.633-1.733-6.396 0a4.428 4.428 0 00-.28.303 4.349 4.349 0 00-.282-.304c-1.763-1.732-4.633-1.732-6.396 0a4.393 4.393 0 000 6.283l6.43 6.318a.35.35 0 00.493 0l6.431-6.318a4.392 4.392 0 000-6.283z" fill="#FF523D" opacity=".8"/></svg><svg fill="none" viewBox="0 0 788 520" id="hero-image" xmlns="http://www.w3.org/2000/svg"><path opacity=".15" d="M659.158 499.626H472.875a8.036 8.036 0 01-8.051-8.037 8.054 8.054 0 018.051-8.037h186.283a8.037 8.037 0 110 16.074zM440.7 500.977h-41.536a5.362 5.362 0 000 10.725H440.7a5.362 5.362 0 000-10.725z" fill="#292929"/><path d="M692.793 417.673a89.352 89.352 0 01-9.101-41.877c.205-7.041 1.242-14.109.355-21.109-1.869-14.805-12.595-27.645-26.008-34.194-13.413-6.55-29.105-7.355-43.76-4.503-23.742 4.612-42.791 19.458-45.029 44.537-1.282 14.382 1.488 28.887.219 43.269a57.797 57.797 0 01-1.897 10.439l-7.177.518-54.445 3.916c-11.966.874-24.042 1.16-32.516 10.302a65.172 65.172 0 00-16.688 35.26c-1.365 9.906.15 21.136 7.655 27.726a21.778 21.778 0 001.924 1.501h182.176a53.48 53.48 0 0034.482-12.198 47.328 47.328 0 001.719-1.501c18.107-16.484 18.23-41.495 8.091-62.086z" fill="#fff" stroke="#18216D" stroke-miterlimit="10"/><path d="M591.397 402.623c-4.476-4.299-9.279-8.31-13.495-12.868-5.322-5.758-8.337-12.635-11.571-19.703-3.453-7.56-6.209-15.665-5.991-24.084a40.762 40.762 0 0113.045-27.986c4.421-4.203 11.203-7.778 12.172-14.123.941-6.127-.533-13.072 3.152-18.516 5.212-7.737 19.703-.546 24.165 4.666 5.854 6.823 5.213 18.176 13.263 23.306 3.043 1.938 6.823 2.388 10.139 3.671a21.508 21.508 0 0112.99 14.6c1.555 6.154 1.501 12.731 6.222 17.507 4.967 5.021 9.552 9.319 12.212 16.169a62.506 62.506 0 013.343 16.47c1.188 13.44-8.5 25.189-19.935 31.548a50.199 50.199 0 01-28.791 5.935c-8.297-.75-19.104-3.043-24.425-9.647a74.422 74.422 0 00-6.495-6.945z" fill="#18216D"/><path d="M576.523 358.317a48.563 48.563 0 01-37.551 31.698 43.383 43.383 0 014.093 10.916c11.68.15 23.893-3.111 32.203-11.312 8.31-8.201 11.612-21.969 5.69-32.039-.723-1.269-3.971-.614-4.435.737z" fill="#fff" stroke="#18216D" stroke-miterlimit="10"/><path d="M570.233 351.535c1.965-5.321 5.458-10.506 7.996-15.364l4.366-8.446c.969-1.87 2.129-5.895 4.299-6.714 1.76-.655 3.848.86 5.458 1.446 2.347.846 4.776 1.488 7.136 2.32 4.68 1.679 9.347 3.848 12.772 7.56a19.432 19.432 0 015.567 14.382c-.232 3.056-1.555 5.922-2.265 8.91a41.285 41.285 0 00-.723 10.698 313.962 313.962 0 002.552 33.007 11.157 11.157 0 01-.246 5.731c-1.883 4.476-13.754 3.33-17.984 3.712-6.755.6-14.532 2.21-20.905-.86a166.588 166.588 0 01-1.214-21.027c0-5.854 1.651-11.762-2.047-16.797-3.234-4.38-7-8.283-5.99-14.137a24.84 24.84 0 011.228-4.421z" fill="#005FEC"/><path d="M584.997 318.787a31.885 31.885 0 000-5.458c-.164-1.488-1.242-2.102-2.361-3.029-4.789-3.93-5.745-10.125-4.23-15.856a8.763 8.763 0 00.369-1.869 10.969 10.969 0 00-.123-1.774 9.386 9.386 0 011.651-6.373c2.92-3.943 9.906-4.189 13.795-1.651 5.294 3.425 6.018 10.739 6.209 17.043.15 4.912.286 9.811.436 14.723.15 5.267.573 11.899-4.926 14.682a8.812 8.812 0 01-6.208.614 6.59 6.59 0 01-3.234-1.883c-2.074-2.387-1.528-6.249-1.378-9.169z" fill="#fff" stroke="#18216D" stroke-miterlimit="10"/><path d="M598.096 307.639a17.51 17.51 0 01-10.711 4.817 23.443 23.443 0 0011.107.464 38.101 38.101 0 01-.396-5.281z" fill="#18216D"/><path d="M453.376 484.985l7.737-7.969a66.126 66.126 0 007.832-9.101 33.341 33.341 0 004.285-9.279c.832-2.92 1.214-6.209-.246-8.856a8.977 8.977 0 00-8.746-4.093 17.114 17.114 0 00-9.061 4.366c-5.758 4.858-9.333 11.053-12.717 17.63a628.678 628.678 0 01-11.994 22.2c-.805 1.365-2.729 4.094-2.456 5.759.273 1.664 2.729 2.278 4.585 2.442 4.271.396 8.364-.341 11.421-3.479 3.056-3.139 6.236-6.345 9.36-9.62z" fill="#005FEC"/><path d="M431.667 487.073a3.08 3.08 0 00-2.375-.423 6.01 6.01 0 00-2.074 1.078 61.956 61.956 0 01-19.512 8.937c-3.466.901-7.273 1.665-9.552 4.394-1.801 2.128-.123 4.093 1.979 5.062a19.109 19.109 0 0010.343.901c8.337-1.297 16.674.928 25.025 0 6.277-.696 8.037-5.349 9.729-10.807.259-.833.573-1.665.805-2.497-2.006-.792-4.639-.464-6.823-1.269a13.649 13.649 0 01-5.048-3.084 15.504 15.504 0 00-2.497-2.292z" fill="#18216D"/><path d="M618.646 406.607c-.791-3.275-1.965-6.645-4.407-8.76-2.443-2.115-6.455-2.443-8.474.136-.696.874-1.092 1.979-1.788 2.852-2.087 2.593-7.327.846-10.042.778-4.23-.109-8.46.136-12.677.423-10.288.682-20.563 1.583-30.838 2.483l-28.777 2.525c-4.885.423-9.784 1.05-14.683 1.364-4.23.232-7.709-.75-11.871 1.201a43.041 43.041 0 00-9.374 6.727c-4.38 3.753-8.815 7.437-13.154 11.244a224.484 224.484 0 00-7.314 6.659c-6.672 6.385-12.813 13.304-18.953 20.194a9036.293 9036.293 0 01-15.501 17.452 282.351 282.351 0 0127.536 25.148c1.569-1.364 3.084-3.111 4.094-4.093a153.942 153.942 0 006.658-6.331 9.781 9.781 0 002.634-3.78c.341-1.174.232-2.443.505-3.643.846-3.917 5.062-5.881 8.105-8.474 4.38-3.739 5.049-8.978 7.86-13.645 2.497-4.176 7.586-6.004 11.011-9.456 3.193-3.234 4.776-7.723 7.505-11.367 2.224-2.974 7.696-7.109 11.448-4.352 2.989 2.183 2.552 7.177 6.154 8.978 2.47 1.228 5.458 1.16 8.092 1.624 9.06 1.61 18.23 2.511 27.372 3.411l15.624 1.528c8.678.846 17.588 1.679 25.994-.818a26.934 26.934 0 0016.483-13.168 21.696 21.696 0 001.774-5.076c1.651-6.973.56-15.242-.996-21.764z" fill="#fff" stroke="#18216D" stroke-miterlimit="10"/><path d="M626.751 344.986c10.193 5.676 11.789 18.189 12.117 29.296.164 5.717-.164 11.571-2.306 16.865-5.758 14.191-23.197 17.739-36.842 17.289a154.891 154.891 0 01-51.292-10.63c-.1-2.985.24-5.969 1.01-8.856a127.94 127.94 0 0031.834 4.23 67.87 67.87 0 0022.965-3.165c4.68-1.638 9.292-4.312 11.339-8.474 3.67-7.464-2.456-15.474-3.33-22.91a16.674 16.674 0 01.341-7.792 15.17 15.17 0 011.638-2.988 11.43 11.43 0 013.37-3.711 7.99 7.99 0 017.137-.123c.692.282 1.366.605 2.019.969z" fill="#fff" stroke="#18216D" stroke-miterlimit="10"/><path d="M494.953 407.167h71.814a2.906 2.906 0 001.365-.369c1.978-1.132.996-3.657-1.365-3.657h-71.814a2.817 2.817 0 00-1.365.369c-2.019 1.119-1.051 3.657 1.365 3.657z" fill="#18216D"/><path d="M494.462 407.344h68.144a1.047 1.047 0 00.918-.562 1.055 1.055 0 00-.059-1.075l-23.197-34.113a1.026 1.026 0 00-.859-.451h-68.185a1.033 1.033 0 00-1.04 1.097c.011.189.073.371.18.527l23.197 34.113a1.048 1.048 0 00.901.464zM585.584 288.699a10.225 10.225 0 016.045.164 11.61 11.61 0 015.458 4.217c1.651 2.346 1.842 4.352 2.101 7.177.573 6.449 1.156 12.899 1.747 19.349a7.43 7.43 0 00.723 3.043 5.909 5.909 0 003.37 2.333 8.972 8.972 0 007.191-.423 8.726 8.726 0 003.807-6.127 25.58 25.58 0 00-.163-7.423c-.915-7.791-1.365-14.928-4.585-22.214-2.579-5.854-9.006-9.17-15.31-10.22a33.753 33.753 0 00-16.743 1.501 10.58 10.58 0 00-4.68 2.838c-1.924 2.265-1.719 4.871 1.133 5.676a15.47 15.47 0 006.017.874 35.677 35.677 0 003.889-.765z" fill="#18216D"/><path d="M595.763 297.228a4.012 4.012 0 015.458-1.856c2.17 1.364 1.787 4.448 0 5.963a3.333 3.333 0 01-4.413.102 3.329 3.329 0 01-.936-1.289 2.997 2.997 0 01-.109-1.283 1.472 1.472 0 010-1.637z" fill="#fff"/><path d="M616.777 365.644l2.497-.914a.56.56 0 01.368-.396c6.263-2.319 12.39-4.98 18.612-7.395a82.566 82.566 0 00-5.908-12.649 33.262 33.262 0 00-7.041-9.62 54.004 54.004 0 00-11.598-8.324c-1.065-.546-13.141-5.567-13.222-5.349a56.898 56.898 0 00-1.993 9.743 61.018 61.018 0 01-.614 6.4 14.35 14.35 0 001.01 10.315c2.456 4.408 4.817 8.938 7.491 13.195l4.394 6.987c1.648-.716 3.35-1.3 5.09-1.747l.914-.246z" fill="#005FEC"/><path d="M581.791 304.992a3.782 3.782 0 004.98 0c.3-.287.232-.764.273-1.174.041-.409-.259-.859-.668-.832a.823.823 0 00-.355.109c-1.256.532-2.989 1.337-4.23 1.897z" fill="#18216D"/><path d="M517.017 385.484a3.706 3.706 0 00-2.783-.469 3.698 3.698 0 00-2.3 1.636 3.694 3.694 0 00-.47 2.783 3.7 3.7 0 001.636 2.3" stroke="#C9CDD1" stroke-miterlimit="10"/><path d="M542.534 461.338c-1.829-5.199-2.975-10.725-4.585-16.02a24.015 24.015 0 00-3.029-6.822 9.886 9.886 0 00-6.004-4.244c-4.23-.805-8.447 2.211-10.384 6.059-5.049 9.974-.737 21.04 5.799 29.05 2.224 2.729 4.626 5.281 6.918 7.942 2.292 2.66 3.957 6.222 6.304 8.746 3.63 3.889 9.92 1.365 12.895-2.156 3.548-4.202-1.024-9.893-3.452-13.427a38.733 38.733 0 01-4.462-9.128z" fill="#005FEC"/><path d="M549.233 476.17l-.669.464a94.449 94.449 0 01-11.025 6.427 6.318 6.318 0 00-2.347 1.869c-.982 1.474.082 2.538.287 3.998.584 4.494.188 9.06-1.16 13.386-1.365 4.094-6.441 9.838-5.158 14.409.832 3.016 5.076 2.566 7.437 1.911a14.409 14.409 0 008.118-6.604c1.829-3.016 3.152-6.332 4.763-9.47a54.779 54.779 0 015.226-8.269 19.497 19.497 0 002.565-3.848 8.602 8.602 0 00-1.583-8.897c-1.119-1.282-1.937-2.811-3.015-4.093-1.46-1.829-1.938-2.252-3.439-1.283z" fill="#18216D"/><path d="M500.165 439.833c.573 1.501.86 3.07 1.365 4.598a37.225 37.225 0 003.725 7.587 6704.198 6704.198 0 0010.507 17.916l5.253 8.951c.232.396.628 1.229 1.105 2.211a438.957 438.957 0 0027.85-17.739c-2.047-3.343-4.366-6.563-4.844-10.411-.246-1.938 0-3.93-.218-5.881-.573-4.708-3.944-8.487-6.755-12.281-5.021-6.822-8.596-14.614-12.867-21.968a97.667 97.667 0 00-1.556-2.593 55.659 55.659 0 00-10.738-13.14 43.775 43.775 0 00-6.932-4.68c-2.061-1.188-3.575-2.893-5.799-3.807-9.661-3.971-17.275 3.834-17.575 13.645-.205 6.945 2.906 13.549 6.345 19.58a148.893 148.893 0 007.641 12.117 28.304 28.304 0 013.493 5.895z" fill="#fff" stroke="#18216D" stroke-miterlimit="10"/><path d="M606.215 353.882a68.79 68.79 0 01-2.483 23.988c.423-1.46 4.502-4.011 5.676-5.171 1.173-1.16 4.53-3.739 4.735-5.704.204-1.965-2.197-4.653-3.111-6.14a78.45 78.45 0 00-4.817-6.973z" fill="#18216D"/><path d="M600.784 314.53c.151 5.267.574 11.898-4.925 14.682a8.815 8.815 0 01-6.209.614" fill="#fff"/><path d="M600.784 314.53c.151 5.267.574 11.898-4.925 14.682a8.815 8.815 0 01-6.209.614" stroke="#18216D" stroke-miterlimit="10"/><path d="M594.262 448.375c12.035-1.951 23.62 5.349 35.778 6.29l-35.778-6.29z" fill="#fff"/><path d="M594.262 448.375c12.035-1.951 23.62 5.349 35.778 6.29" stroke="#18216D" stroke-miterlimit="10"/><path d="M622.903 444.595a44.633 44.633 0 0019.322.928l-19.322-.928z" fill="#fff"/><path d="M622.903 444.595a44.633 44.633 0 0019.322.928M647.096 402.882a41.002 41.002 0 01-8.187 29.856" stroke="#18216D" stroke-miterlimit="10"/><path d="M469.041 485.804c-.437-3.043-.792-10.917-4.503-12.063-8.624-2.661-3.193 18.244-2.429 20.945a1.92 1.92 0 00.9 1.188 5.999 5.999 0 003.439 3.384 2.029 2.029 0 001.992-.533c.229-.225.431-.477.601-.75a1.77 1.77 0 00.682-1.515.286.286 0 000-.109c.819-3.234-.3-7.9-.682-10.547zM449.528 466.591c-2.906.164-5.936 3.602-7.846 5.458a53.237 53.237 0 00-7.559 9.388 1.851 1.851 0 00.096 2.239c.171.207.385.374.627.49.709 2.17 3.302 2.511 5.458 1.992a15.664 15.664 0 008.282-5.703c1.897-2.388 4.258-5.554 4.722-8.638.368-2.456-.942-5.39-3.78-5.226zM474.321 450.735c-5.021.328-14.382.383-17.261 5.459a3.96 3.96 0 001.365 5.458c2.729 1.91 6.263 1.105 9.21.286a1.9 1.9 0 001.078-.723 23.777 23.777 0 006.536-2.511c1.951-1.091 4.503-2.729 4.216-5.226-.286-2.497-3.042-2.879-5.144-2.743zM477.378 433.338c-1.611-4.38-5.213-7.983-8.924-10.63a1.769 1.769 0 00-2.265.07 1.752 1.752 0 00-.464.667 4.098 4.098 0 00-4.162 1.283c-2.647 2.893-1.256 8.187.573 11.148 2.006 3.22 7.245 6.822 11.189 6.277 4.285-.601 5.335-5.336 4.053-8.815zM442.773 450.517a1.912 1.912 0 00-1.241 0 2.914 2.914 0 00-2.492.616 2.927 2.927 0 00-1.042 2.345c0 2.525 1.855 5.172 3.67 6.823a13.106 13.106 0 007.56 3.275 2.063 2.063 0 002.046-2.047 11.719 11.719 0 00-8.501-11.012zM499.878 446.355c-.846-1.364-1.255-2.879-2.633-3.725a4.229 4.229 0 00-4.912.478c-2.989 2.21-4.667 6.522-5.172 10.084-.409 2.92-.546 7.777 3.098 8.664 2.66.642 4.325-1.296 5.458-3.507a14.334 14.334 0 002.197-3.888 18.59 18.59 0 001.282-5.458 1.82 1.82 0 00.973-1.936 1.808 1.808 0 00-.291-.712zM573.385 436.64c-2.729-3.275-7.164.669-9.415 2.524a38.979 38.979 0 00-5.076 5.104c-.996 1.214-2.838 2.92-2.62 4.639 0 .164.068.327.109.491-.113.402-.19.813-.232 1.228a2.077 2.077 0 002.047 2.047c4.189 0 8.187-3.657 11.025-6.413 2.102-2.047 6.809-6.4 4.162-9.62zM556.929 419.666c-2.647-2.17-6.454-3.999-9.961-3.48-4.094.6-5.199 4.025-3.602 7.546a13 13 0 001.146 1.992c.038.084.07.171.095.259a12.096 12.096 0 008.187 7.15c2.729.696 9.293.696 9.907-3.111.614-3.807-3.043-8.241-5.772-10.356zM594.248 414.999c-1.596-3.957-7-4.558-10.561-4.176-3.098.342-8.965.805-11.203 3.63-1.665 1.365-2.92 3.384-1.542 5.39 1.733 2.511 6.932 2.62 9.62 2.729a16.05 16.05 0 008.01-1.692c2.961-.723 7.041-2.511 5.676-5.881zM595.845 432.628c-2.838-3.165-8.378-3.711-10.425.628-1.214 2.593-.559 5.458.71 8.187a11.174 11.174 0 003.425 5.772l.586.873a2.145 2.145 0 002.685.735c.307-.144.574-.358.781-.626a7.164 7.164 0 005.69-3.602c1.651-3.398-1.119-9.374-3.452-11.967zM624.363 422.845a1.591 1.591 0 00-.29-1.296 1.602 1.602 0 00-1.17-.628c-4.967-.682-10.384-1.488-15.119.641-2.428 1.092-5.458 4.012-3.984 7 1.869 3.589 8.869 3.944 12.281 4.094 3.643.109 8.596-.805 10.506-4.353 1.406-2.579.151-4.339-2.224-5.458zM543.052 436.408c-.464-2.238-2.374-2.961-4.435-2.947a1.91 1.91 0 00-2.292-1.078 19.54 19.54 0 00-10.916 7.027c-1.883 2.443-4.462 6.577-1.146 9.006 3.316 2.429 8.664-.996 11.475-3.016 2.416-1.719 8.037-5.567 7.314-8.992zM528.493 460.655c-7.137.86-12.813 9.225-16.729 14.437a1.58 1.58 0 000 2.047 3.661 3.661 0 00.081 2.865c2.88 6.1 13.264-4.339 15.529-6.822 1.978-2.129 5.198-5.458 5.649-8.419.45-2.961-1.938-4.421-4.53-4.108zM514.438 435.044a2.1 2.1 0 00-3.015-1.228c-6.7 4.189-7.369 14.859-6.959 21.927a1.987 1.987 0 001.432 1.856 3.431 3.431 0 001.327 1.903c.65.461 1.44.681 2.235.621 4.093-.109 5.676-6.481 6.317-9.551a26.938 26.938 0 00-1.337-15.528zM531.454 409.705a1.75 1.75 0 00-1.883-1.365h-.246a20.092 20.092 0 00-11.885-1.296c-4.68 0-10.411 1.842-10.234 7.041.218 6.467 13.168 4.093 16.961 3.356 3.166-.518 11.844-4.052 7.287-7.736zM500.657 418.56c-.464.164-.928.369-1.365.546a8.86 8.86 0 00-2.865 1.365 29.134 29.134 0 00-4.476 2.851c-2.279 1.788-5.594 4.449-6.536 7.314-.832 2.47 1.174 4.408 3.575 4.408 2.729 0 5.608-1.815 7.655-3.412 1.678-1.364 7.136-7.122 6.468-10.438.273-1.46-.764-3.248-2.456-2.634zM500.206 396.087c-.818-3.903-3.725-2.948-6.413-2.457a7.881 7.881 0 01-.996 0c-2.729.192-5.144 4.094-6.345 6.332-1.528 2.729-2.729 6.372-1.078 9.347 3.411 6.208 10.602-1.719 12.54-5.035 1.351-2.252 2.865-5.458 2.292-8.187z" fill="#18216D"/><path d="M729.922 79.601H478.851v151.461h251.071V79.602z" fill="#fff" stroke="#18216D" stroke-miterlimit="10"/><path d="M497.737 224.212c-1.256-8.05.272-16.81 5.458-23.101 2.442-2.947 5.649-5.362 7.191-8.855a18.647 18.647 0 001.255-5.595c1.037-10.548-.751-22.064 4.912-31.029 2.279-3.616 5.608-6.454 8.187-9.893 4.653-6.345 6.373-14.382 10.534-21.041 4.162-6.658 12.772-11.994 19.718-8.31 6.945 3.685 7.436 13.168 5.321 20.55-2.115 7.382-6.113 14.559-5.417 22.201.628 6.672 4.817 12.608 5.567 19.28.833 7.355-2.592 14.56-2.729 21.955-.245 9.388 4.681 18.476 3.575 27.796-1.105 9.319-7.996 16.838-16.292 20.808-8.706 4.176-27.932 8.378-36.433 1.556-6.044-4.803-9.77-19.349-10.847-26.322zM620.543 232.4c-1.255-8.051.273-16.811 5.458-23.102 4.285-5.185 7.982-7.013 7.778-13.89-.246-8.706-3.166-16.484-1.801-25.435 1.814-11.899 8.678-22.487 11.148-34.263 1.978-9.552 1.364-20.236 7.436-27.782a11.74 11.74 0 017.341-4.598c7.328-.996 12.499 7.519 12.854 14.914.355 7.396-1.883 15.01.218 22.078 2.252 7.614 9.17 13.304 10.835 21.068.968 4.571 0 9.361.627 13.986.532 3.958 2.224 7.642 3.575 11.394 7.751 21.519 5.254 59.165-18.202 70.395-8.706 4.176-27.932 8.379-36.433 1.556-6.031-4.803-9.756-19.349-10.834-26.321z" fill="#005FEC"/><path d="M653.987 244.735v-.082a59.802 59.802 0 016.058-25.244c6.373-13.003 17.548-23.947 20.209-38.206 1.283-6.823.423-13.945.696-20.932.273-6.986 1.951-14.436 7.109-19.103 2.401-2.183 6.086-3.643 8.883-1.978a8.503 8.503 0 013.207 4.407c2.729 7.082 2.606 14.928 3.615 22.473 1.597 11.913 10.521 17.944 11.885 29.474 1.542 13.14-.368 26.417-4.202 39.011-4.176 13.727-7.532 28.055-21.833 34.918-12.171 5.841-24.124 7.642-31.52-5.785a38.096 38.096 0 01-4.107-18.953z" fill="#005FEC"/><path d="M537.744 228.129c-.191-3.193 1.583-6.141 3.425-8.733 6.973-9.811 15.787-18.203 22.173-28.423 3.534-5.649 7.546-11.012 8.938-17.739.539-3.26.786-6.561.737-9.865a69.425 69.425 0 012.729-19.622c3.056-9.552 9.729-18.093 18.762-22.433 15.01-7.191 38.206-6.563 46.393 10.657 3.207 6.727 3.835 14.519 3.876 21.832 0 8.87-.969 17.807.204 26.608 1.365 9.893 6.959 15.979 14.191 22.338 4.981 4.38 8.788 8.541 9.647 15.228.819 6.372-2.142 12.703-6.372 17.315-5.99 6.536-14.355 10.521-22.951 12.69-8.597 2.17-17.52 2.661-26.363 3.193-10.111.614-20.276 1.283-30.333.15-10.056-1.132-20.126-4.216-28.136-10.397-2.961-2.279-5.731-5.049-9.17-6.605-3.438-1.555-7.463-1.228-7.75-6.194z" fill="#18216D"/><path d="M610.596 239.509a87.633 87.633 0 01-12.404.736c-2.429 0-6.086.151-8.064-1.487-1.979-1.637-2.074-4.407-2.129-6.563-.204-7.723 1.365-15.351 2.156-23.033.601-6.181.655-12.622-1.241-18.598-1.733-5.459-4.353-10.248-5.213-16.088-.205-1.365 0-4.612-.914-5.745-.914-1.132-2.47-.887-3.357-2.033a6.37 6.37 0 01-1.146-4.203 9.24 9.24 0 015.458-7.777.243.243 0 00.14-.103.243.243 0 00.037-.17c-.914-9.552 3.125-19.636 11.599-24.289 8.705-4.762 18.721-8.309 27.904-2.183a22.749 22.749 0 019.033 12.922c.464 1.597 1.965 16.483 2.061 17.207a3.83 3.83 0 013.793 1.76 8.07 8.07 0 011.173 4.216 7.328 7.328 0 01-4.407 7.219c-3.411 1.364-2.483 4.925-3.329 8.187a31.06 31.06 0 01-5.458 11.216 9.11 9.11 0 00-1.46 2.306 7.882 7.882 0 00-.246 3.097c.591 10.989.846 21.987.764 32.994 0 3.316-.505 6.045-3.507 7.642-3.507 1.814-7.395 2.237-11.243 2.77z" fill="#fff" stroke="#18216D" stroke-miterlimit="10"/><path d="M594.658 128.819a23.197 23.197 0 00-10.916 8.951 24.722 24.722 0 00-3.07 14.382c.15 1.638 1.269 3.521 2.892 3.316 1.283-.164 2.006-1.514 2.729-2.606 4.626-7.027 15.692-8.528 23.443-9.047a70.904 70.904 0 015.908-.123c5.308.11 10.493 1.542 15.733 1.761 4.094.177 8.637-2.729 11.244-5.69a17.566 17.566 0 004.366-11.735 9.239 9.239 0 00-1.515-5.363c-1.773-2.429-5.198-3.37-8.064-3.206a32.768 32.768 0 00-8.023 1.446 41.621 41.621 0 01-7.983 2.388c-2.824.341-5.662 1.023-8.514 1.46-6.154.887-12.472 1.542-18.23 4.066zM610.691 186.975c-2.388.723-4.271 1.364-6.741.409-.668-.273-1.146.86-.491 1.16 2.388 1.119 5.772 1.365 7.846-.518a.625.625 0 00.102-.765.632.632 0 00-.716-.286zM610.254 171.419h-.586l-4.38.683c-5.158.805-1.57 7.409 2.524 6.413a5.176 5.176 0 002.115-.969 6.828 6.828 0 001.665-2.593 5.201 5.201 0 00.532-1.787 1.73 1.73 0 00-.751-1.624 1.868 1.868 0 00-1.119-.123zM607.334 166.862c-1.023 0 0-6.031.082-6.823a20.958 20.958 0 00-.15-5.458c0-.286-.45-.204-.464 0-.177 3.766-1.023 7.437-1.241 11.162-.082 1.364.382 2.729 1.937 2.251a.61.61 0 00.305-.622.612.612 0 00-.469-.51zM595.695 159.534a.953.953 0 00-.9-.682h-.096a1.08 1.08 0 00-.928.532v.069a1.077 1.077 0 00-.109 1.228l.082.109c.573.791 2.101.641 2.033-.546 0-.239-.027-.477-.082-.71zM620.202 158.279c-.915-.846-2.293.532-1.365 1.365.028.143.079.281.15.409a.9.9 0 001.556 0 1.49 1.49 0 00-.341-1.774zM613.379 199.351a83.39 83.39 0 0010.766 5.376 2.125 2.125 0 002.672-.883c.174-.296.273-.63.289-.973a48.051 48.051 0 011.433-10.179c.464-1.719 1.992-3.125 1.992-4.898a1.361 1.361 0 00-.164-.71 1.27 1.27 0 00-1.61-.382 3.916 3.916 0 00-1.364 1.187c-3.78 4.503-7.833 6.222-13.4 7.532a2.14 2.14 0 00-1.458 3c.182.388.476.711.844.93z" fill="#18216D"/><path d="M729.922 79.601H478.851v151.461h251.071V79.602z" stroke="#18216D" stroke-miterlimit="10"/><path d="M486.424 70.418h235.952a8.185 8.185 0 018.187 8.187v10.261H478.128v-10.26a8.176 8.176 0 012.437-5.829 8.176 8.176 0 015.859-2.359z" fill="#18216D"/><path d="M489.768 85.646a5.048 5.048 0 100-10.097 5.048 5.048 0 000 10.097zM513.415 80.365a5.039 5.039 0 01-2.906 4.779 5.036 5.036 0 11-2.348-9.596 5.05 5.05 0 015.254 4.817z" fill="#fff"/><path d="M513.414 80.365a5.03 5.03 0 01-2.906 4.779 5.035 5.035 0 11-2.347-9.596 5.05 5.05 0 015.253 4.817z" fill="#fff"/><path d="M502.512 74.457l11.735 12.28M502.239 86.465l12.281-11.749" stroke="#18216D" stroke-miterlimit="10"/><path d="M439.28 27.067H255.071v151.461H439.28V27.068z" fill="#fff" stroke="#18216D" stroke-miterlimit="10"/><path d="M274.843 82.235a18.144 18.144 0 014.475-15.092c1.365-1.364 2.729-2.279 3.589-4.093a11.26 11.26 0 00.641-2.62 19.463 19.463 0 019.306-12.786c5.131-3.247 10.248-3.316 16.115-4.298 1.733-.287 3.398-.832 5.117-1.119a18.247 18.247 0 014.954-.095 25.119 25.119 0 0113.003 5.894 24.539 24.539 0 015.813 7.437c1.365 2.21 1.897 4.735 3.152 6.959 1.447 2.538 3.166 2.456 5.608 3.63a15.608 15.608 0 018.542 11.202c1.951 11.871-10.22 20.468-21.041 18.012-8.187-1.829-20.467-1.774-26.717 4.598-2.606 2.62-4.803 5.704-7.846 7.805-.314.205-.627.41-.955.601a19.5 19.5 0 01-18.571.504c-7.655-4.23-7.055-13.072-4.598-20.358a5.81 5.81 0 00.464-2.074 6.814 6.814 0 00-.451-1.788 15.46 15.46 0 01-.6-2.32z" fill="#005FEC"/><path d="M311.794 128.505c3.043 5.977 9.552 8.938 16.715 7.969h.164a13.633 13.633 0 0011.191-10.714c.371-1.799.375-3.655.012-5.455l-2.415-12.39a11.537 11.537 0 01-.219-4.967 18.417 18.417 0 012.061-4.094c5.458-9.892-.737-21.136-5.786-29.719a24.08 24.08 0 00-19.635-11.98c-17.643-.723-26.335 15.296-22.91 30.988 1.964 8.924 7.327 15.323 14.163 21 6.836 5.676 7.219 10.861 6.659 19.362z" fill="#fff" stroke="#18216D" stroke-miterlimit="10"/><path d="M295.242 72.67a11.296 11.296 0 00-.163 4.093 17.566 17.566 0 01-1.597 9.633 15.425 15.425 0 01-3.043 3.74 9.726 9.726 0 01-3.438 2.305 4.286 4.286 0 01-3.957-.491 4.575 4.575 0 01-1.474-3.93c.17-1.444.49-2.866.955-4.243.682-2.58.955-5.254 1.678-7.82a11.875 11.875 0 014.162-6.658 6.543 6.543 0 015.636-.996c.682.232 2.128.846 2.374 1.61.341 1.092-.791 1.665-1.133 2.756z" fill="#005FEC"/><path d="M300.004 71.414a24.311 24.311 0 005.063-1.965 2.811 2.811 0 011.255-.423c.386.026.76.143 1.092.341a23.044 23.044 0 007.982 2.73c2.825.177 5.977-1.147 6.932-3.808.136-.368.3-.832.696-.887a.98.98 0 01.737.341c3.206 2.73 6.481 7.41 11.352 5.227 2.593-1.16 3.93-4.094 4.094-6.987.3-6.277-4.339-12.021-10.056-14.641-5.718-2.62-12.281-2.593-18.517-1.788a40.558 40.558 0 00-12.758 3.48c-4.326 2.129-5.909 5.458-8.269 9.552a7.156 7.156 0 00-.942 6.29c1.365 2.975 5.281 3.602 8.501 3.138.958-.139 1.906-.34 2.838-.6z" fill="#005FEC"/><path d="M326.926 107.929a13.2 13.2 0 01-1.569.641c-.669.232-3.589.286-3.862.682-.846 1.242 2.225 1.528 2.729 1.61 1.306.189 2.587.518 3.821.983.946.42 1.858.913 2.729 1.473l3.37 1.979a72.015 72.015 0 01-1.364-11.448c0 .545-2.811 2.237-3.275 2.551a21.516 21.516 0 01-2.579 1.529zM304.18 83.435a1.365 1.365 0 00-1.364.382.794.794 0 00-.209.664.802.802 0 00.386.578.925.925 0 00.655.341 1.144 1.144 0 001.201-1.269.807.807 0 00-.669-.696zM326.476 80.12a1.176 1.176 0 00-.655-.478.423.423 0 00-.696-.082c-.505.505-.614.641-.464 1.365a.678.678 0 00.491.505 1.16 1.16 0 001.365-.546.708.708 0 00-.041-.764zM318.643 86.478c-.395-1.5-1.446-3.043-1.637-4.557a.409.409 0 10-.819 0c.042 1.29.3 2.562.765 3.766.382 1.46.395 3.002.846 4.42.177.56 1.146.683 1.255 0a8.881 8.881 0 00-.41-3.629zM328.236 78.387a5.116 5.116 0 00-6.481.464.406.406 0 00.223.654.41.41 0 00.268-.027 8.365 8.365 0 012.729-1.078 7.923 7.923 0 012.92.505.315.315 0 00.394-.112.314.314 0 00-.053-.406zM303.88 81.034a5.664 5.664 0 00-4.094 1.364.525.525 0 00-.125.294.524.524 0 00.312.523c.1.043.212.053.318.03 1.651-.437 4.203-1.938 5.84-.574a.317.317 0 00.37.04.308.308 0 00.13-.145.31.31 0 00.019-.195c-.287-1.187-1.774-1.31-2.77-1.337zM317.811 98.84c-.067-.399.02-.809.246-1.145.288-.57.612-1.122.969-1.651a4.599 4.599 0 012.033-1.856 1.979 1.979 0 012.442.737 2.612 2.612 0 01-.423 2.497c-.668 1.05-4.502 3.902-5.267 1.419z" fill="#18216D"/><path d="M334.663 66.925a11.695 11.695 0 01-5.758-1.692c-1.092-.792-3.93-3.275-3.711-4.762.068-.437-.533-.792-.778-.328-.996 1.883 1.46 4.421 2.729 5.663 2.047 2.06 4.762 2.633 7.546 3.002 1.187.15 1.187-1.788-.028-1.883zM313.472 65.26a10.559 10.559 0 01-3.711-1.365c-.996-.668-3.521-2.606-2.47-3.93.273-.34-.178-.832-.491-.49-1.365 1.487.15 3.356 1.269 4.489 1.364 1.364 3.547 2.906 5.458 2.02a.429.429 0 00.129-.168.436.436 0 00-.184-.556zM299.036 66.038a18.551 18.551 0 00-3.03-.328c-.682-.122-3.834-.941-3.001-2.115.272-.409-.369-.914-.696-.532-2.334 2.73 4.939 5.117 6.822 3.725a.427.427 0 00-.095-.75z" fill="#fff"/><path d="M439.28 27.067H255.071v151.461H439.28V27.068z" stroke="#18216D" stroke-miterlimit="10"/><path d="M294.574 191.628c-9.934-1.16-20.018-2.729-29.842-.86.764-15.555 2.933-31.247 9.019-45.575 6.086-14.327 16.374-27.29 30.36-34.112 17.466-8.624 38.671-8.624 57.078-3.18 18.066 5.363 34.973 19.185 47.84 32.598a135.175 135.175 0 0117.889 23.265 28.05 28.05 0 013.111 6.441 15.63 15.63 0 01-1.774 12.594c-7.723 12.199-26.021 8.379-37.865 9.552a430.045 430.045 0 01-31.93 2.088 436.495 436.495 0 01-63.886-2.811z" fill="#18216D"/><path d="M297.139 134.659c1.364-5.349 2.606-11.202 1.364-16.06-1.269-5.172-5.458-9.674-7.696-14.505-1.978-4.38-3.015-9.551-1.282-13.972.096-.293.244-.566.436-.805a2.143 2.143 0 013.125.464 9.412 9.412 0 011.242 3.343c.928 3.274 3.152 5.99 5.335 8.596 4.981 5.977 11.339 9.906 12.581 18.121.805 5.308.314 10.807.832 16.169.614 6.263 1.624 12.472 2.211 18.735.6 6.536 2.51 26.294-5.158 29.501-4.817 2.019-16.647.396-20.386-3.466a12.288 12.288 0 01-3.002-8.938c.247-3.221.95-6.391 2.088-9.415 2.36-7.259 4.953-14.477 6.822-21.9.41-1.829.956-3.807 1.488-5.868z" fill="#fff" stroke="#18216D" stroke-miterlimit="10"/><path d="M382.871 162.591a.819.819 0 00-.342-.573.853.853 0 00-.313-.137.851.851 0 00-.341 0c-3.165-3.261-6.522-6.918-10.37-9.237-.328-.205-.846.232-.573.573a52.42 52.42 0 005.008 5.144 439.068 439.068 0 015.54 5.622c.477.505 1.596.163 1.501-.614-.041-.26-.069-.519-.11-.778z" fill="#fff"/><path d="M394.252 159.903c-11.585 2.019-23.361 6.181-33.69 9.988a40.96 40.96 0 01-8.065 2.415c-2.985.278-5.988.31-8.978.096-7.969-.123-16.456 1.787-22.037 7.491-1.965 2.019-2.511 7.055.71 8.351 3.22 1.296 8.323-.996 11.994-.56 3.707.48 7.459.517 11.175.11a339.095 339.095 0 0134.372-1.911c13.372-.082 26.826.614 40.035-1.46a18.969 18.969 0 007.177-2.251c5.458-3.384 6.823-11.79 2.566-16.374-4.79-5.158-13.877-6.932-20.564-7.096a75.485 75.485 0 00-14.695 1.201z" fill="#fff" stroke="#18216D" stroke-miterlimit="10"/><path d="M439.28 27.067H255.071v151.461H439.28V27.068z" stroke="#18216D" stroke-miterlimit="10"/><path d="M262.644 18.566h169.091a8.188 8.188 0 018.187 8.187v10.262H254.416v-10.22a8.186 8.186 0 018.228-8.229z" fill="#18216D"/><path d="M265.987 33.794a5.049 5.049 0 100-10.097 5.049 5.049 0 000 10.097zM289.634 28.514a5.038 5.038 0 01-2.906 4.778 5.034 5.034 0 01-5.103-8.624 5.032 5.032 0 012.756-.971 5.05 5.05 0 015.253 4.817z" fill="#fff"/><path d="M289.634 28.514a5.03 5.03 0 01-2.906 4.778 5.035 5.035 0 11-2.347-9.595 5.047 5.047 0 015.253 4.817z" fill="#fff"/><path d="M278.732 22.605l11.735 12.28M278.459 34.613l12.28-11.748" stroke="#18216D" stroke-miterlimit="10"/><path d="M432.458 244.707H219.593v151.462h212.865V244.707z" fill="#fff" stroke="#18216D" stroke-miterlimit="10"/><path d="M362.294 323.385c8.556 3.821 19.008 3.698 29.897-3.193 25.093-15.883 17.861-69.59-23.797-59.056-38.985 9.907-30.074 51.552-6.1 62.249z" fill="#005FEC"/><path d="M399.696 290.405c-4.353 1.46-8.488 3.452-12.895 4.803a101.568 101.568 0 01-12.281 2.893c.191-5.458.437-10.957.737-16.497.314-5.717 1.365-11.803.832-17.507 0-.368-.586-.491-.682-.095-1.364 5.376-1.282 11.407-1.651 16.92a764.84 764.84 0 00-.982 18.202.861.861 0 001.078.833c8.814-1.365 18.721-3.48 26.458-8.092.75-.45.273-1.76-.614-1.46zM376.417 323.222a2.023 2.023 0 01.177-1.365c.205-.382-.218-.9-.614-.628a2.247 2.247 0 00-1.023 1.883c0 .655.355 1.72 1.187 1.638a.509.509 0 00.464-.369c.205-.382-.109-.736-.191-1.159zM348.581 292.452c-.423-.833-.942-.246-1.488 0a7.926 7.926 0 01-2.06.204c-.764.069-1.528.164-2.292.301-.478.095-.505.928 0 .996a17.66 17.66 0 004.325.245c.764-.122 2.006-.791 1.515-1.746zM376.813 260.386a.523.523 0 00-.601-.082 1.814 1.814 0 00-.696 2.238.815.815 0 00.573.573.887.887 0 00.706-.157.889.889 0 00.345-.635 2.187 2.187 0 00-.327-1.937zM350.041 274.413a14.655 14.655 0 00-1.992-.478c-.492-.095-.874.587-.369.86.576.302 1.168.57 1.774.805.491.177 1.105.491 1.583.123a.423.423 0 00.177-.437c-.136-.559-.682-.696-1.173-.873zM357.996 269.078c-.423-.382-.86-.71-1.365-1.078-.504-.369-.736-.764-1.159-1.065a.464.464 0 00-.683.519 4.433 4.433 0 002.729 2.388.463.463 0 00.539-.195.464.464 0 00-.061-.569zM353.534 311.828a12.426 12.426 0 00-2.402 2.224c-.327.423.096 1.174.628.819a12.469 12.469 0 002.402-2.238c.341-.396-.123-1.173-.628-.805zM361.803 318.173c-.286.491-.587.982-.887 1.474-.3.491-.532.777-.355 1.364a.588.588 0 00.696.396c.56-.15.696-.491.942-.996l.764-1.542a.67.67 0 00.076-.512.674.674 0 00-.82-.492.69.69 0 00-.239.112.69.69 0 00-.177.196zM390.581 319.428c-.273-.095-.724-.204-.765-.573a.55.55 0 00-.15-.349.554.554 0 00-.71-.089.553.553 0 00-.231.302 1.654 1.654 0 00-.076.859 1.658 1.658 0 001.072 1.277c.275.1.571.126.86.074.832-.15.641-1.255 0-1.501zM357.791 409.773c2.552 3.179 7.451 2.647 11.394 1.665 3.944-.983 8.624-1.979 11.653.736a59.735 59.735 0 00-41.972-62.699c-10.916-3.357-21.028-2.061-32.162-1.365-12.963.833-25.53 5.39-36.705 11.885-16.839 9.798-38.657 25.394-44.484 44.702" fill="#18216D"/><path d="M292.991 378.553a17.283 17.283 0 01-3.494-3.18 11.688 11.688 0 01-1.746-9.087 48.624 48.624 0 012.988-9.02c6.372-16.688 5.158-35 11.38-51.851 1.105-2.975 2.32-6.823 4.339-9.293a34.82 34.82 0 017.246-5.744c9.674-6.55 23.347-11.162 33.021-2.061 5.213 4.913 6.318 12.759 6.141 19.922a81.164 81.164 0 01-6.073 29.051 16.577 16.577 0 01-9.756 9.238c-3.848 1.364-5.553.955-7.327 4.68a29.81 29.81 0 00-2.074 15.146 32.76 32.76 0 01.777 6.823c-1.091 12.512-15.651 12.812-24.888 10.588a34.378 34.378 0 01-10.534-5.212zM386.514 334.07a15.528 15.528 0 013.575-5.049 50.707 50.707 0 0110.193-6.727 1.66 1.66 0 011.269-.273 1.075 1.075 0 01.56 1.269 3.104 3.104 0 01-.764 1.283l-2.497 2.974c-2.975 3.548 3.943 1.365 5.048.942a26.683 26.683 0 008.488-5.008 23.773 23.773 0 012.729-2.183 6.22 6.22 0 014.257-1.01 4.997 4.997 0 013.766 4.571c.232 4.721-3.93 9.934-7.314 12.281a35.859 35.859 0 01-12.499 5.54 2.205 2.205 0 00-1.678 1.569l-11.967 43.31a125.045 125.045 0 01-4.435 13.454c-1.951 4.912-4.721 9.756-10.111 11.352a11.655 11.655 0 01-10.984-2.551c-9.415-8.501.641-25.694 4.162-34.673a504.67 504.67 0 0110.629-24.929 499.9 499.9 0 015.841-12.281c.627-1.378 1.146-2.674 1.732-3.861z" fill="#fff" stroke="#18216D" stroke-miterlimit="10"/><path d="M297.138 291.169a55.095 55.095 0 014.517-4.394c-2.606-1.787-5.049-4.803-4.094-7.818a6.825 6.825 0 013.002-3.466 15.012 15.012 0 0111.872-1.924 22.5 22.5 0 019.428 5.717c.376.413.843.731 1.365.928.41.075.831.075 1.242 0l12.853-1.242a46.973 46.973 0 0110.071-.232c5.212.628 10.847 3.275 11.325 9.047.478 5.772-3.739 10.916-8.733 13.386-5.335 2.565-11.462 2.729-17.37 2.797-5.909.069-12.022.137-17.425 2.552a10.183 10.183 0 00-5.554 5.035c-.559 1.365-.777 3.22-2.142 3.903-2.088 1.064-2.333 1.214-3.138 3.493-.928 2.647-1.992 5.267-3.125 7.846-1.133 2.579-4.571 8.187-8.051 5.349-2.592-2.102-2.319-10.917-2.469-14.069-.382-7.286-.151-17.07 3.82-23.469a24.97 24.97 0 012.606-3.439zM339.002 332.623a3.052 3.052 0 01-2.538-.109c-.56-.246-1.365.3-.914.928a3.36 3.36 0 004.475.941c1.16-.668.15-2.292-1.023-1.76zM330.242 316.413c-1.147-.724-3.685 1.146-1.474 2.128.901.396 2.238-.518 1.91-1.542a.999.999 0 00-.436-.586zM349.263 315.908a1.457 1.457 0 00-1.801 0 1.074 1.074 0 00-.109 1.364c.041.163.105.32.191.464.11.175.282.302.482.356.2.053.413.028.596-.069a1.919 1.919 0 001.009-1.215.828.828 0 00-.368-.9zM341.335 317.859c-.163-.491-1.037-.628-1.132 0a39.348 39.348 0 01-1.037 5.158c-.314 1.132-.969 2.633-.26 3.725.574.873 2.211.328 1.788-.75-.423-1.078.559-3.343.764-4.517a7.369 7.369 0 00-.123-3.616z" fill="#18216D"/><path d="M302.529 316.194a5.939 5.939 0 00-2.811 1.065 6.713 6.713 0 00-2.47 2.319 7.693 7.693 0 00.246 8.542 5.457 5.457 0 007.491 1.051c4.625-3.289 5.185-13.741-2.456-12.977z" fill="#fff"/><path d="M303.647 320.725a2.96 2.96 0 00-2.251 1.364 2.6 2.6 0 00-.287 2.729.586.586 0 00.778.259c.369-.191.287-.709.314-1.064a2.376 2.376 0 011.583-2.21c.546-.219.464-1.147-.137-1.078zM309.951 341.383c-2.851-1.978-6.467-6.29-6.167-10.261l-.382-.109a17.808 17.808 0 01-3.589-1.255c.164.082 0 6.031.123 6.686a35.867 35.867 0 001.487 6.972c.874 2.729 3.057 10.685 7.341 8.188 2.074-1.201 4.094-2.457 6.127-3.739 1.078-.683 2.129-1.365 3.207-2.061l.354-.204a39.601 39.601 0 01-8.501-4.217zM398.167 328.857a.412.412 0 00-.481-.221.408.408 0 00-.297.439 7.303 7.303 0 01-1.364 5.458c-.328.478.368.942.764.587a5.703 5.703 0 001.378-6.263zM401.77 337.385a8.196 8.196 0 00-5.295.532 6.168 6.168 0 00-3.274 2.852.367.367 0 00.407.498.37.37 0 00.22-.129 6.36 6.36 0 014.012-2.429 17.676 17.676 0 004.012-.682c.3-.15.177-.533-.082-.642z" fill="#18216D"/><path d="M432.458 244.707H219.593v151.462h212.865V244.707z" stroke="#18216D" stroke-miterlimit="10"/><path d="M227.166 231.431h197.746a8.184 8.184 0 018.187 8.187v10.261H218.938v-10.261a8.188 8.188 0 018.228-8.187z" fill="#18216D"/><path d="M230.51 246.659a5.05 5.05 0 10-.001-10.1 5.05 5.05 0 00.001 10.1zM254.157 241.378a5.032 5.032 0 01-2.906 4.778 5.035 5.035 0 11-2.347-9.595 5.053 5.053 0 015.253 4.817z" fill="#fff"/><path d="M254.157 241.378a5.04 5.04 0 01-2.907 4.778 5.034 5.034 0 01-5.103-8.624 5.037 5.037 0 012.756-.971 5.05 5.05 0 015.254 4.817z" fill="#fff"/><path d="M243.254 235.47l11.735 12.28M242.981 247.477l12.281-11.748M411.458 224.185l16.647-20.522 6.55 20.522 14.396-21.204 6.754 21.204 14.15-20.863 6.659 20.863 13.577-20.004" stroke="#18216D" stroke-miterlimit="10"/><path d="M182.22 383.833l16.647-20.522 6.549 20.522 14.396-21.204 6.754 21.204 14.164-20.863 6.645 20.863" stroke="#00ECD0" stroke-width="2" stroke-miterlimit="10"/><path d="M283.057 478.108a6.82 6.82 0 0110.916-2.879l.423.354a6.82 6.82 0 0011.026-3.397l2.169-8.297a6.828 6.828 0 014.572-4.746 6.824 6.824 0 016.454 1.335l.259.232a6.82 6.82 0 0011.025-3.398l2.047-7.818a6.816 6.816 0 014.572-4.746 6.821 6.821 0 016.453 1.334 6.82 6.82 0 0011.025-3.397" stroke="#18216D" stroke-miterlimit="10"/><path d="M1 434.614a6.824 6.824 0 0110.916-2.879l.423.355a6.824 6.824 0 0011.025-3.398l2.17-8.296a6.822 6.822 0 0111.025-3.412l.26.232a6.815 6.815 0 006.448 1.34 6.825 6.825 0 004.577-4.737L49.89 406" stroke="#00ECD0" stroke-width="2" stroke-miterlimit="10"/><path d="M399.559 1.196a6.823 6.823 0 019.211 6.454v.56a6.816 6.816 0 003.133 5.79 6.828 6.828 0 006.569.445l7.75-3.697a6.823 6.823 0 019.702 6.236v.368a6.816 6.816 0 003.133 5.79 6.82 6.82 0 006.568.446l7.301-3.48a6.82 6.82 0 019.715 6.236v0a6.816 6.816 0 006.35 6.85 6.824 6.824 0 003.338-.614" stroke="#18216D" stroke-miterlimit="10"/><path d="M473.694 327.342a24.552 24.552 0 01-5.854-17.866 24.562 24.562 0 0126.36-22.625 24.56 24.56 0 0116.772 8.494" stroke="#00ECD0" stroke-width="2" stroke-miterlimit="10"/><path d="M676.707 39.348c7.159 0 12.962-5.804 12.962-12.963 0-7.16-5.803-12.963-12.962-12.963-7.16 0-12.963 5.804-12.963 12.963 0 7.16 5.803 12.963 12.963 12.963z" fill="#005FEC"/><path d="M712.961 377.161a29.212 29.212 0 0129.215 29.228" fill="#fff"/><path d="M712.961 377.161a29.212 29.212 0 0129.215 29.228M730.605 3.87l-40.936 40.936" stroke="#18216D" stroke-miterlimit="10"/><path fill="#fff" d="M255.371 179.197h177.387v23.197H255.371zM222.623 396.837h169.2v28.655h-169.2zM490.068 231.731h222.416v42.3H490.068z"/><path d="M678.084 261.082l24.875-20.509 6.536 20.509 21.901-21.191 6.754 21.191 21.546-20.85 6.645 20.85L787 241.078" stroke="#00ECD0" stroke-width="2" stroke-miterlimit="10"/><path d="M564.816 254.259l-40.936 40.935M553.899 273.362l-40.935 40.936" stroke="#18216D" stroke-miterlimit="10"/></svg><svg fill="none" viewBox="0 0 352 301" id="hero-image_mobile" xmlns="http://www.w3.org/2000/svg"><path opacity=".15" d="M277.034 289.722H169.22a4.661 4.661 0 01-3.294-1.36 4.655 4.655 0 01-1.365-3.292 4.656 4.656 0 014.659-4.651h107.814a4.651 4.651 0 010 9.303zM150.598 290.503h-24.039a3.104 3.104 0 000 6.208h24.039a3.104 3.104 0 000-6.208z" fill="#292929"/><path d="M296.5 242.291a51.718 51.718 0 01-5.268-24.237c.119-4.075.719-8.166.206-12.217-1.082-8.569-7.289-16-15.052-19.791-7.763-3.791-16.845-4.256-25.327-2.606-13.741 2.669-24.766 11.262-26.061 25.777-.742 8.323.861 16.718.126 25.042a33.386 33.386 0 01-1.097 6.041l-4.154.301-31.51 2.266c-6.926.505-13.915.671-18.82 5.962a37.72 37.72 0 00-9.658 20.407c-.79 5.734.087 12.233 4.43 16.047.355.31.727.6 1.114.869h105.436a30.952 30.952 0 0019.957-7.06c.339-.284.671-.569.995-.869 10.48-9.54 10.551-24.015 4.683-35.932z" fill="#fff" stroke="#18216D" stroke-miterlimit="10"/><path d="M237.816 233.58c-2.591-2.488-5.37-4.81-7.811-7.447-3.08-3.333-4.825-7.313-6.697-11.404-1.998-4.375-3.593-9.066-3.467-13.939a23.591 23.591 0 017.55-16.197c2.559-2.432 6.484-4.501 7.045-8.174.545-3.546-.308-7.565 1.824-10.716 3.017-4.478 11.404-.316 13.986 2.701 3.388 3.948 3.017 10.519 7.676 13.488 1.761 1.122 3.949 1.382 5.868 2.125a12.439 12.439 0 017.518 8.45c.9 3.561.869 7.368 3.601 10.132 2.875 2.906 5.528 5.394 7.068 9.358a36.184 36.184 0 011.935 9.532c.687 7.779-4.92 14.578-11.538 18.259a29.056 29.056 0 01-16.663 3.435c-4.802-.434-11.056-1.761-14.136-5.583a43.034 43.034 0 00-3.759-4.02z" fill="#18216D"/><path d="M229.207 207.937a28.104 28.104 0 01-21.733 18.346 25.132 25.132 0 012.369 6.318c6.76.086 13.828-1.801 18.638-6.547 4.809-4.747 6.72-12.715 3.293-18.543-.419-.734-2.298-.355-2.567.426z" fill="#fff" stroke="#18216D" stroke-miterlimit="10"/><path d="M225.567 204.012c1.137-3.08 3.159-6.08 4.628-8.892l2.527-4.888c.561-1.082 1.232-3.412 2.488-3.886 1.018-.379 2.227.498 3.158.837 1.359.49 2.764.861 4.131 1.343 2.708.971 5.409 2.227 7.392 4.375a11.248 11.248 0 013.222 8.324c-.135 1.769-.901 3.427-1.311 5.157a23.857 23.857 0 00-.419 6.191 181.72 181.72 0 001.477 19.104 6.445 6.445 0 01-.142 3.316c-1.09 2.591-7.961 1.927-10.409 2.149-3.909.347-8.41 1.279-12.098-.498a96.303 96.303 0 01-.703-12.17c0-3.388.955-6.807-1.185-9.721-1.872-2.535-4.051-4.794-3.467-8.182.158-.873.396-1.729.711-2.559z" fill="#005FEC"/><path d="M234.112 185.059c.09-1.051.09-2.108 0-3.159-.095-.861-.719-1.216-1.367-1.753-2.772-2.275-3.324-5.86-2.448-9.177.111-.352.182-.714.213-1.082a6.181 6.181 0 00-.071-1.026 5.433 5.433 0 01.956-3.688c1.69-2.283 5.733-2.425 7.984-.956 3.064 1.982 3.483 6.215 3.593 9.864.087 2.843.166 5.678.253 8.521.087 3.048.332 6.886-2.851 8.497a5.101 5.101 0 01-3.593.356 3.824 3.824 0 01-1.872-1.09c-1.2-1.382-.884-3.617-.797-5.307z" fill="#fff" stroke="#18216D" stroke-miterlimit="10"/><path d="M241.693 178.607a10.138 10.138 0 01-6.199 2.788c2.09.603 4.295.695 6.428.268a22.007 22.007 0 01-.229-3.056z" fill="#18216D"/><path d="M157.935 281.248l4.478-4.612a38.374 38.374 0 004.533-5.268 19.291 19.291 0 002.479-5.37c.482-1.69.703-3.593-.142-5.125a5.188 5.188 0 00-5.062-2.369 9.902 9.902 0 00-5.244 2.527c-3.332 2.811-5.402 6.397-7.36 10.203a363.02 363.02 0 01-6.942 12.849c-.466.79-1.579 2.369-1.421 3.333.158.963 1.579 1.318 2.653 1.413 2.472.229 4.841-.197 6.61-2.014 1.769-1.816 3.609-3.672 5.418-5.567z" fill="#005FEC"/><path d="M145.37 282.456a1.785 1.785 0 00-1.374-.245c-.437.128-.845.34-1.2.624a35.865 35.865 0 01-11.293 5.173c-2.006.521-4.21.963-5.529 2.543-1.042 1.232-.071 2.369 1.146 2.93 1.909.723 3.98.903 5.986.521 4.825-.75 9.65.537 14.483 0 3.633-.403 4.652-3.096 5.631-6.255.15-.481.332-.963.466-1.445-1.161-.458-2.685-.268-3.949-.734a7.911 7.911 0 01-2.922-1.785 8.914 8.914 0 00-1.445-1.327z" fill="#18216D"/><path d="M253.587 235.886c-.458-1.895-1.138-3.846-2.551-5.07-1.414-1.224-3.736-1.414-4.904.079-.403.505-.632 1.145-1.035 1.65-1.208 1.501-4.241.49-5.812.45-2.449-.063-4.897.079-7.337.245-5.955.395-11.901.916-17.848 1.438l-16.655 1.461c-2.827.244-5.663.608-8.498.789-2.448.135-4.462-.434-6.87.695a24.928 24.928 0 00-5.426 3.894c-2.535 2.171-5.101 4.304-7.613 6.507a130.665 130.665 0 00-4.233 3.854c-3.861 3.696-7.415 7.7-10.969 11.688a5633.938 5633.938 0 01-8.971 10.1 163.395 163.395 0 0115.936 14.555c.909-.79 1.785-1.8 2.37-2.369a90.242 90.242 0 003.854-3.664 5.681 5.681 0 001.524-2.188c.197-.679.134-1.414.292-2.109.49-2.266 2.93-3.403 4.691-4.904 2.535-2.164 2.922-5.196 4.549-7.897 1.445-2.417 4.391-3.475 6.373-5.473 1.848-1.871 2.764-4.47 4.343-6.578 1.288-1.722 4.454-4.115 6.626-2.519 1.73 1.263 1.477 4.153 3.562 5.196 1.429.711 3.159.671 4.683.94 5.244.932 10.551 1.453 15.842 1.974l9.042.884c5.023.49 10.18.972 15.045-.473a15.59 15.59 0 009.539-7.621c.463-.933.808-1.92 1.027-2.938.956-4.036.324-8.821-.576-12.596z" fill="#fff" stroke="#18216D" stroke-miterlimit="10"/><path d="M258.277 200.222c5.9 3.285 6.824 10.527 7.013 16.955.095 3.309-.095 6.697-1.335 9.761-3.332 8.213-13.425 10.267-21.322 10.006a89.636 89.636 0 01-29.686-6.152 17.61 17.61 0 01.584-5.125 74.087 74.087 0 0018.425 2.448 39.295 39.295 0 0013.291-1.832c2.709-.948 5.378-2.496 6.562-4.904 2.125-4.32-1.421-8.956-1.927-13.26a9.648 9.648 0 01.198-4.509c.25-.611.568-1.191.948-1.73a6.62 6.62 0 011.95-2.148 4.636 4.636 0 014.13-.071c.401.163.791.35 1.169.561z" fill="#fff" stroke="#18216D" stroke-miterlimit="10"/><path d="M181.997 236.21h41.564c.277-.005.548-.078.79-.214 1.145-.655.576-2.116-.79-2.116h-41.564a1.63 1.63 0 00-.789.213c-1.169.648-.608 2.117.789 2.117z" fill="#18216D"/><path d="M181.714 236.312h39.439a.606.606 0 00.497-.947l-13.425-19.744a.595.595 0 00-.498-.26h-39.463a.599.599 0 00-.497.94l13.425 19.743a.615.615 0 00.522.268zM234.452 167.646a5.912 5.912 0 013.498.094 6.723 6.723 0 013.159 2.441c.956 1.358 1.066 2.519 1.216 4.154a4269.6 4269.6 0 001.011 11.198 4.3 4.3 0 00.419 1.761 3.421 3.421 0 001.95 1.35 5.192 5.192 0 004.162-.244 5.057 5.057 0 002.203-3.546 14.799 14.799 0 00-.094-4.296c-.529-4.51-.79-8.64-2.654-12.857-1.492-3.388-5.212-5.307-8.861-5.915a19.54 19.54 0 00-9.69.868 6.134 6.134 0 00-2.708 1.643c-1.114 1.311-.995 2.819.655 3.285a8.97 8.97 0 003.483.506 20.768 20.768 0 002.251-.442z" fill="#18216D"/><path d="M240.342 172.581a2.328 2.328 0 012.269-1.323c.311.022.613.107.89.249 1.256.79 1.035 2.575 0 3.451a1.93 1.93 0 01-1.728.469 1.93 1.93 0 01-1.367-1.156 1.726 1.726 0 01-.064-.742.857.857 0 010-.948z" fill="#fff"/><path d="M252.505 212.178l1.445-.529a.324.324 0 01.213-.229c3.625-1.342 7.171-2.882 10.772-4.28a47.69 47.69 0 00-3.42-7.321 19.256 19.256 0 00-4.075-5.568 31.272 31.272 0 00-6.712-4.817c-.616-.316-7.605-3.222-7.653-3.096a32.952 32.952 0 00-1.153 5.639 35.376 35.376 0 01-.355 3.704 8.308 8.308 0 00.584 5.97c1.422 2.551 2.788 5.173 4.336 7.637l2.543 4.043a19.693 19.693 0 012.946-1.011l.529-.142z" fill="#005FEC"/><path d="M232.256 177.075a2.19 2.19 0 002.883 0c.173-.166.134-.442.158-.679.023-.237-.151-.498-.387-.482a.481.481 0 00-.206.063c-.726.308-1.729.774-2.448 1.098z" fill="#18216D"/><path d="M194.767 223.661a2.129 2.129 0 00-2.37.069 2.124 2.124 0 00-.843 2.217 2.142 2.142 0 00.947 1.331" stroke="#C9CDD1" stroke-miterlimit="10"/><path d="M209.535 267.562c-1.058-3.009-1.721-6.207-2.653-9.272a13.882 13.882 0 00-1.753-3.948 5.718 5.718 0 00-3.475-2.456c-2.448-.466-4.888 1.279-6.01 3.506-2.922 5.773-.426 12.178 3.356 16.813 1.288 1.58 2.678 3.057 4.004 4.597 1.327 1.54 2.291 3.601 3.649 5.062 2.101 2.251 5.741.79 7.463-1.248 2.053-2.432-.592-5.725-1.998-7.771a22.452 22.452 0 01-2.583-5.283z" fill="#005FEC"/><path d="M213.413 276.146l-.387.269a54.68 54.68 0 01-6.381 3.719 3.665 3.665 0 00-1.358 1.082c-.569.853.047 1.469.165 2.314a18.17 18.17 0 01-.671 7.747c-.79 2.37-3.727 5.694-2.985 8.34.482 1.745 2.938 1.485 4.304 1.106a8.345 8.345 0 004.699-3.823c1.058-1.745 1.824-3.664 2.756-5.48a31.713 31.713 0 013.025-4.786 11.291 11.291 0 001.484-2.227 4.968 4.968 0 00-.916-5.149c-.647-.743-1.121-1.627-1.745-2.369-.845-1.059-1.122-1.304-1.99-.743z" fill="#18216D"/><path d="M185.015 255.116c.331.868.497 1.777.789 2.661a21.558 21.558 0 002.156 4.391 4317.62 4317.62 0 006.081 10.369l3.041 5.181c.134.229.363.71.639 1.279a254.217 254.217 0 0016.119-10.266c-1.185-1.935-2.528-3.799-2.804-6.026-.142-1.121 0-2.274-.126-3.404-.332-2.724-2.283-4.912-3.909-7.107-2.907-3.949-4.976-8.458-7.448-12.715a57.192 57.192 0 00-.9-1.5 32.21 32.21 0 00-6.215-7.605 25.34 25.34 0 00-4.012-2.709c-1.192-.687-2.069-1.674-3.356-2.204-5.591-2.298-9.998 2.22-10.172 7.898-.118 4.019 1.682 7.842 3.672 11.332a86.236 86.236 0 004.423 7.013 16.436 16.436 0 012.022 3.412z" fill="#fff" stroke="#18216D" stroke-miterlimit="10"/><path d="M246.392 205.371a39.813 39.813 0 01-1.437 13.883c.244-.845 2.606-2.322 3.285-2.993.679-.671 2.622-2.164 2.74-3.301.119-1.137-1.271-2.693-1.8-3.554a45.554 45.554 0 00-2.788-4.035z" fill="#18216D"/><path d="M243.249 182.595c.087 3.048.332 6.886-2.851 8.497a5.101 5.101 0 01-3.593.356" fill="#fff"/><path d="M243.249 182.595c.087 3.048.332 6.886-2.851 8.497a5.101 5.101 0 01-3.593.356" stroke="#18216D" stroke-miterlimit="10"/><path d="M239.474 260.059c6.965-1.129 13.67 3.096 20.707 3.641l-20.707-3.641z" fill="#fff"/><path d="M239.474 260.059c6.965-1.129 13.67 3.096 20.707 3.641" stroke="#18216D" stroke-miterlimit="10"/><path d="M256.051 257.872a25.843 25.843 0 0011.182.537l-11.182-.537z" fill="#fff"/><path d="M256.051 257.872a25.843 25.843 0 0011.182.537M270.052 233.73a23.728 23.728 0 01-4.738 17.279" stroke="#18216D" stroke-miterlimit="10"/><path d="M167.001 281.722c-.253-1.761-.458-6.318-2.606-6.982-4.991-1.54-1.848 10.559-1.406 12.123a1.108 1.108 0 00.521.687 3.468 3.468 0 001.99 1.958 1.182 1.182 0 001.153-.308 2.35 2.35 0 00.348-.434 1.016 1.016 0 00.395-.877.222.222 0 000-.063c.473-1.871-.174-4.572-.395-6.104zM155.707 270.602c-1.682.095-3.435 2.085-4.541 3.159a30.87 30.87 0 00-4.375 5.433 1.073 1.073 0 00-.155.887 1.072 1.072 0 00.574.693c.411 1.256 1.911 1.453 3.159 1.153a9.073 9.073 0 004.794-3.301c1.097-1.382 2.463-3.214 2.732-4.999.213-1.422-.545-3.12-2.188-3.025zM170.057 261.426c-2.906.189-8.324.221-9.99 3.159a2.281 2.281 0 00-.264 1.744 2.28 2.28 0 001.054 1.414c1.579 1.106 3.624.64 5.33.166.251-.062.472-.21.624-.418a13.766 13.766 0 003.783-1.453c1.129-.632 2.606-1.58 2.44-3.025-.166-1.445-1.761-1.666-2.977-1.587zM171.826 251.357c-.932-2.535-3.017-4.62-5.165-6.152a1.016 1.016 0 00-1.579.426 2.379 2.379 0 00-1.312.024 2.38 2.38 0 00-1.097.718c-1.532 1.675-.727 4.739.332 6.452 1.16 1.864 4.193 3.949 6.475 3.633 2.48-.347 3.088-3.088 2.346-5.101zM151.798 261.299a1.107 1.107 0 00-.719 0 1.69 1.69 0 00-2.045 1.714c0 1.461 1.074 2.993 2.124 3.949a7.583 7.583 0 004.376 1.895 1.196 1.196 0 001.184-1.185 6.786 6.786 0 00-4.92-6.373zM184.848 258.891c-.489-.79-.726-1.667-1.524-2.156a2.447 2.447 0 00-2.843.276c-1.729 1.279-2.701 3.775-2.993 5.836-.237 1.69-.316 4.502 1.793 5.015 1.54.371 2.503-.75 3.159-2.03a8.268 8.268 0 001.271-2.25c.406-1.01.656-2.075.742-3.159.134-.068.252-.163.346-.279a1.055 1.055 0 00.049-1.253zM227.391 253.268c-1.579-1.896-4.146.387-5.449 1.461a22.582 22.582 0 00-2.938 2.953c-.576.703-1.643 1.69-1.516 2.685 0 .095.039.19.063.285-.065.232-.11.47-.134.71a1.202 1.202 0 001.184 1.185c2.425 0 4.739-2.116 6.381-3.712 1.217-1.184 3.941-3.704 2.409-5.567zM217.867 243.444c-1.532-1.256-3.736-2.314-5.765-2.014-2.369.347-3.009 2.329-2.085 4.367.187.403.409.789.663 1.153.022.049.041.099.056.15a7.003 7.003 0 004.738 4.138c1.579.403 5.378.403 5.733-1.8.356-2.204-1.761-4.77-3.34-5.994zM239.466 240.743c-.924-2.291-4.051-2.638-6.113-2.417-1.792.198-5.188.466-6.483 2.101-.964.789-1.69 1.958-.893 3.119 1.003 1.453 4.012 1.516 5.568 1.58a9.296 9.296 0 004.636-.98c1.713-.418 4.075-1.453 3.285-3.403zM240.39 250.946c-1.643-1.832-4.849-2.148-6.033.363-.703 1.501-.324 3.159.41 4.739a6.47 6.47 0 001.982 3.34l.34.506a1.243 1.243 0 002.006.063 4.145 4.145 0 003.293-2.085c.956-1.967-.648-5.426-1.998-6.926zM256.895 245.284a.919.919 0 00-.467-1.006.92.92 0 00-.378-.108c-2.874-.395-6.01-.861-8.75.371-1.406.632-3.159 2.322-2.306 4.052 1.082 2.077 5.133 2.282 7.108 2.369 2.108.063 4.975-.466 6.08-2.519.814-1.493.087-2.512-1.287-3.159zM209.836 253.133c-.269-1.295-1.374-1.713-2.567-1.705a1.106 1.106 0 00-1.327-.624 11.304 11.304 0 00-6.317 4.067c-1.09 1.414-2.583 3.806-.664 5.212 1.919 1.406 5.015-.576 6.642-1.745 1.398-.995 4.651-3.222 4.233-5.205zM201.409 267.167c-4.13.497-7.415 5.339-9.682 8.355a.92.92 0 000 1.185 2.12 2.12 0 00.048 1.658c1.666 3.53 7.676-2.511 8.987-3.948 1.145-1.232 3.009-3.159 3.269-4.873.261-1.714-1.121-2.559-2.622-2.377zM193.275 252.344a1.221 1.221 0 00-.704-.77 1.218 1.218 0 00-1.041.059c-3.878 2.424-4.265 8.6-4.028 12.691a1.153 1.153 0 00.829 1.074 1.982 1.982 0 002.061 1.461c2.37-.063 3.286-3.751 3.657-5.528a15.6 15.6 0 00-.774-8.987zM203.123 237.679a1.01 1.01 0 00-1.09-.79h-.142a11.63 11.63 0 00-6.879-.75c-2.708 0-6.025 1.066-5.923 4.075.127 3.743 7.621 2.369 9.817 1.942 1.832-.3 6.855-2.345 4.217-4.477zM185.299 242.804c-.269.095-.537.213-.79.316a5.138 5.138 0 00-1.658.789 16.938 16.938 0 00-2.591 1.651c-1.318 1.035-3.237 2.575-3.782 4.233-.482 1.429.679 2.551 2.069 2.551 1.579 0 3.245-1.051 4.43-1.975.971-.789 4.13-4.122 3.743-6.041.158-.845-.442-1.88-1.421-1.524zM185.038 229.797c-.474-2.259-2.156-1.706-3.712-1.421a5.031 5.031 0 01-.576 0c-1.579.11-2.977 2.369-3.672 3.664-.885 1.579-1.58 3.688-.624 5.41 1.974 3.593 6.136-.996 7.257-2.915.782-1.303 1.659-3.159 1.327-4.738z" fill="#18216D"/><path d="M317.989 46.628h-145.31v87.659h145.31v-87.66z" fill="#fff" stroke="#18216D" stroke-miterlimit="10"/><path d="M183.609 130.323c-.727-4.659.158-9.729 3.159-13.37 1.413-1.706 3.269-3.104 4.161-5.125.408-1.036.653-2.128.727-3.238.6-6.105-.434-12.77 2.843-17.959 1.319-2.093 3.246-3.735 4.738-5.725 2.693-3.672 3.688-8.324 6.097-12.178 2.409-3.854 7.392-6.942 11.412-4.81 4.019 2.133 4.304 7.621 3.08 11.894-1.224 4.272-3.538 8.426-3.136 12.849.364 3.862 2.788 7.297 3.222 11.159.482 4.256-1.5 8.426-1.579 12.706-.142 5.434 2.709 10.693 2.069 16.087-.64 5.394-4.628 9.745-9.429 12.044-5.039 2.416-16.166 4.848-21.086.9-3.499-2.78-5.654-11.199-6.278-15.234zM254.684 135.061c-.726-4.659.158-9.729 3.159-13.37 2.48-3.001 4.62-4.059 4.501-8.039-.142-5.039-1.832-9.54-1.042-14.72 1.05-6.887 5.023-13.015 6.452-19.83 1.145-5.529.79-11.713 4.304-16.08a6.792 6.792 0 014.249-2.661c4.241-.576 7.234 4.351 7.439 8.632.205 4.28-1.09 8.687.126 12.778 1.303 4.406 5.307 7.7 6.271 12.193.561 2.645 0 5.417.363 8.095.308 2.29 1.287 4.422 2.069 6.594 4.486 12.454 3.041 34.242-10.535 40.742-5.038 2.416-16.165 4.849-21.085.9-3.491-2.78-5.647-11.198-6.271-15.234z" fill="#005FEC"/><path d="M274.04 142.2v-.047a34.608 34.608 0 013.507-14.61c3.688-7.526 10.156-13.86 11.696-22.112.742-3.949.244-8.071.402-12.115.158-4.043 1.13-8.355 4.115-11.056 1.39-1.263 3.522-2.109 5.141-1.145a4.92 4.92 0 011.856 2.55c1.579 4.1 1.508 8.64 2.093 13.008.924 6.894 6.088 10.385 6.878 17.058.893 7.605-.213 15.289-2.432 22.578-2.417 7.945-4.36 16.237-12.636 20.209-7.044 3.38-13.962 4.423-18.243-3.348a22.054 22.054 0 01-2.377-10.97z" fill="#005FEC"/><path d="M206.764 132.589c-.111-1.847.916-3.553 1.982-5.054 4.035-5.678 9.137-10.535 12.833-16.45 2.045-3.269 4.367-6.373 5.173-10.266a32.12 32.12 0 00.426-5.71 40.207 40.207 0 011.579-11.356c1.769-5.528 5.631-10.472 10.859-12.983 8.687-4.162 22.113-3.799 26.851 6.167 1.856 3.894 2.219 8.403 2.243 12.636 0 5.133-.561 10.306.118 15.4.79 5.725 4.028 9.247 8.213 12.928 2.883 2.535 5.086 4.943 5.584 8.813.474 3.688-1.24 7.352-3.688 10.022-3.467 3.782-8.308 6.088-13.283 7.344-4.976 1.256-10.141 1.54-15.258 1.848-5.852.355-11.735.742-17.556.087-5.82-.656-11.648-2.44-16.284-6.018-1.714-1.319-3.317-2.922-5.307-3.822-1.99-.9-4.32-.711-4.485-3.586z" fill="#18216D"/><path d="M248.927 139.176c-2.38.312-4.778.454-7.178.426-1.406 0-3.523.087-4.668-.861-1.145-.947-1.2-2.55-1.232-3.798-.118-4.47.79-8.885 1.248-13.331.348-3.577.379-7.305-.719-10.764-1.003-3.159-2.519-5.931-3.016-9.311-.119-.789 0-2.669-.529-3.324-.53-.656-1.43-.514-1.943-1.177a3.691 3.691 0 01-.664-2.432 5.347 5.347 0 013.159-4.502.142.142 0 00.103-.158c-.529-5.528 1.809-11.364 6.713-14.057 5.038-2.756 10.835-4.81 16.15-1.263a13.17 13.17 0 015.228 7.478c.268.924 1.137 9.54 1.192 9.959a2.22 2.22 0 012.196 1.018c.446.736.681 1.58.679 2.44a4.245 4.245 0 01-2.551 4.178c-1.974.79-1.437 2.851-1.927 4.739a17.975 17.975 0 01-3.159 6.491c-.347.4-.632.85-.845 1.335a4.56 4.56 0 00-.142 1.793c.342 6.36.49 12.725.442 19.095 0 1.919-.292 3.499-2.029 4.423-2.03 1.05-4.281 1.295-6.508 1.603z" fill="#fff" stroke="#18216D" stroke-miterlimit="10"/><path d="M239.703 75.113a13.428 13.428 0 00-6.318 5.18 14.313 14.313 0 00-1.777 8.324c.087.948.735 2.038 1.674 1.92.743-.095 1.161-.877 1.58-1.509 2.677-4.067 9.082-4.936 13.567-5.236 1.138-.07 2.275-.095 3.42-.07 3.072.062 6.073.892 9.105 1.018 2.37.103 4.999-1.58 6.508-3.293a10.163 10.163 0 002.527-6.792 5.346 5.346 0 00-.877-3.104c-1.026-1.405-3.009-1.95-4.667-1.855a18.952 18.952 0 00-4.644.837 24.044 24.044 0 01-4.619 1.382c-1.635.197-3.278.592-4.928.845-3.562.513-7.218.892-10.551 2.353zM248.982 108.771c-1.382.419-2.472.79-3.901.237-.387-.158-.663.498-.284.671 1.382.648 3.34.79 4.541-.3a.367.367 0 00.059-.442.364.364 0 00-.415-.166zM248.73 99.768h-.34l-2.535.395c-2.985.466-.908 4.288 1.461 3.712a2.993 2.993 0 001.224-.561c.431-.42.761-.933.964-1.5.164-.324.268-.674.308-1.035a1.008 1.008 0 00-.435-.94 1.08 1.08 0 00-.647-.07zM247.04 97.13c-.593 0 0-3.49.047-3.948.109-1.052.08-2.114-.087-3.159 0-.166-.26-.118-.268 0-.103 2.18-.593 4.304-.719 6.46-.047.79.221 1.58 1.121 1.303a.354.354 0 00-.094-.655zM240.303 92.89a.548.548 0 00-.521-.395h-.055a.625.625 0 00-.537.308v.04a.63.63 0 00-.064.71l.048.063c.332.458 1.216.372 1.177-.316 0-.138-.016-.276-.048-.41zM254.487 92.163c-.53-.49-1.327.308-.79.79a.775.775 0 00.087.237.52.52 0 00.9 0 .861.861 0 00-.197-1.027zM250.538 115.934a48.272 48.272 0 006.231 3.112 1.24 1.24 0 001.138-.09 1.239 1.239 0 00.576-.984 27.84 27.84 0 01.829-5.892c.269-.995 1.153-1.808 1.153-2.835a.795.795 0 00-.095-.411.737.737 0 00-.932-.221c-.313.165-.583.4-.789.687-2.188 2.606-4.533 3.602-7.755 4.36a1.237 1.237 0 00-.845 1.736c.106.224.276.412.489.538z" fill="#18216D"/><path d="M317.989 46.628h-145.31v87.659h145.31v-87.66z" stroke="#18216D" stroke-miterlimit="10"/><path d="M177.062 41.313h136.56a4.739 4.739 0 014.738 4.738v5.939h-146.1V46.05a4.74 4.74 0 014.802-4.738z" fill="#18216D"/><path d="M178.997 50.126a2.923 2.923 0 10-.001-5.845 2.923 2.923 0 00.001 5.845zM192.683 47.07a2.92 2.92 0 01-1.682 2.765 2.917 2.917 0 01-3.199-.494 2.912 2.912 0 01-.769-3.144 2.916 2.916 0 012.609-1.915 2.92 2.92 0 013.041 2.788z" fill="#fff"/><path d="M192.682 47.07a2.912 2.912 0 01-4.88 2.271 2.913 2.913 0 114.88-2.271z" fill="#fff"/><path d="M186.373 43.65l6.791 7.108M186.215 50.6l7.107-6.8" stroke="#18216D" stroke-miterlimit="10"/><path d="M149.777 16.223H43.163v87.66h106.614v-87.66z" fill="#fff" stroke="#18216D" stroke-miterlimit="10"/><path d="M54.607 48.152a10.503 10.503 0 012.59-8.735c.79-.79 1.58-1.319 2.077-2.369a6.55 6.55 0 00.371-1.516 11.26 11.26 0 015.386-7.4c2.97-1.88 5.93-1.919 9.327-2.488 1.003-.165 1.966-.481 2.961-.647a10.562 10.562 0 012.867-.055c2.786.385 5.4 1.57 7.526 3.411a14.215 14.215 0 013.364 4.304c.79 1.28 1.098 2.74 1.825 4.028.837 1.469 1.832 1.421 3.245 2.1a9.033 9.033 0 014.944 6.484c1.129 6.87-5.915 11.846-12.178 10.425-4.738-1.059-11.846-1.027-15.463 2.661-1.508 1.516-2.78 3.301-4.54 4.517-.182.119-.364.237-.553.348a11.286 11.286 0 01-10.748.292c-4.43-2.448-4.083-7.566-2.662-11.783.163-.38.254-.787.269-1.2a3.953 3.953 0 00-.26-1.035 8.918 8.918 0 01-.348-1.342z" fill="#005FEC"/><path d="M75.992 74.931c1.761 3.46 5.528 5.173 9.675 4.612h.094a7.897 7.897 0 006.484-9.358l-1.398-7.17a6.682 6.682 0 01-.126-2.875 10.65 10.65 0 011.192-2.37c3.16-5.725-.426-12.232-3.348-17.2A13.939 13.939 0 0077.2 33.636c-10.211-.418-15.242 8.853-13.26 17.935 1.137 5.165 4.241 8.869 8.197 12.154 3.957 3.285 4.178 6.286 3.854 11.206z" fill="#fff" stroke="#18216D" stroke-miterlimit="10"/><path d="M66.413 42.616a6.529 6.529 0 00-.094 2.369 10.165 10.165 0 01-.925 5.575 8.934 8.934 0 01-1.76 2.164 5.631 5.631 0 01-1.99 1.335 2.48 2.48 0 01-2.29-.284A2.646 2.646 0 0158.5 51.5c.099-.836.284-1.659.553-2.456.395-1.492.553-3.04.971-4.525a6.87 6.87 0 012.409-3.854 3.783 3.783 0 013.262-.576c.394.134 1.232.49 1.374.931.197.632-.458.964-.656 1.596z" fill="#005FEC"/><path d="M69.17 41.89a14.073 14.073 0 002.93-1.138c.218-.138.468-.222.726-.245.223.015.44.083.632.198a13.339 13.339 0 004.62 1.58c1.634.102 3.458-.664 4.011-2.204.08-.214.174-.482.403-.514a.57.57 0 01.426.198c1.856 1.58 3.752 4.288 6.571 3.024 1.5-.67 2.274-2.369 2.37-4.043.173-3.633-2.512-6.957-5.821-8.474-3.31-1.516-7.108-1.5-10.717-1.034-2.555.262-5.05.943-7.384 2.014-2.503 1.232-3.42 3.159-4.785 5.528a4.145 4.145 0 00-.545 3.64c.79 1.722 3.056 2.085 4.92 1.817a13.11 13.11 0 001.642-.348z" fill="#005FEC"/><path d="M84.75 63.022a7.563 7.563 0 01-.908.372c-.387.134-2.077.165-2.235.394-.49.719 1.288.885 1.58.932.755.11 1.497.3 2.211.569.547.243 1.076.529 1.58.853l1.95 1.145a41.64 41.64 0 01-.79-6.626c0 .316-1.627 1.295-1.895 1.477-.476.329-.975.625-1.493.884zM71.586 48.847a.79.79 0 00-.79.22.465.465 0 00.103.72.536.536 0 00.379.197.662.662 0 00.695-.735.465.465 0 00-.387-.402zM84.49 46.928a.68.68 0 00-.38-.277.245.245 0 00-.402-.047c-.292.292-.355.371-.268.79a.394.394 0 00.284.292.671.671 0 00.79-.316.411.411 0 00-.024-.442zM79.957 50.608c-.23-.869-.837-1.761-.948-2.638a.237.237 0 00-.474 0c.024.746.174 1.483.442 2.18.221.845.23 1.737.49 2.559.103.323.663.394.727 0a5.142 5.142 0 00-.237-2.101zM85.509 45.925a2.962 2.962 0 00-3.752.268.238.238 0 00.13.379.236.236 0 00.155-.016c.485-.299 1.02-.51 1.58-.623.576-.01 1.15.09 1.69.292a.181.181 0 00.197-.3zM71.412 47.457a3.277 3.277 0 00-2.369.79.3.3 0 00.292.49c.956-.254 2.433-1.122 3.38-.333a.182.182 0 00.3-.173c-.165-.687-1.026-.758-1.603-.774zM79.475 57.763a.916.916 0 01.142-.664c.167-.33.354-.649.56-.955.274-.47.685-.845 1.178-1.074a1.145 1.145 0 011.413.426 1.518 1.518 0 01-.245 1.445c-.386.608-2.606 2.259-3.048.822z" fill="#18216D"/><path d="M89.228 39.291a6.768 6.768 0 01-3.332-.98c-.632-.457-2.275-1.895-2.148-2.755.04-.253-.308-.459-.45-.19-.577 1.09.845 2.559 1.58 3.277 1.184 1.193 2.755 1.525 4.366 1.738.687.087.687-1.035-.016-1.09zM76.964 38.328a6.112 6.112 0 01-2.148-.79c-.577-.387-2.038-1.509-1.43-2.275.158-.197-.102-.481-.284-.284-.79.86.087 1.943.734 2.598.79.79 2.054 1.682 3.16 1.17a.253.253 0 00-.032-.42zM68.609 38.778a10.73 10.73 0 00-1.754-.19c-.395-.07-2.219-.545-1.737-1.224.158-.237-.213-.53-.403-.308-1.35 1.58 2.86 2.962 3.949 2.156a.245.245 0 00-.055-.434z" fill="#fff"/><path d="M149.777 16.223H43.163v87.66h106.614v-87.66z" stroke="#18216D" stroke-miterlimit="10"/><path d="M66.026 111.464c-5.75-.671-11.585-1.579-17.271-.497.442-9.003 1.698-18.085 5.22-26.377 3.522-8.292 9.477-15.795 17.571-19.743 10.109-4.991 22.381-4.991 33.035-1.84 10.455 3.103 20.24 11.103 27.687 18.866a78.188 78.188 0 0110.354 13.465 16.198 16.198 0 011.8 3.728 9.034 9.034 0 01-1.026 7.289c-4.47 7.06-15.06 4.849-21.915 5.528a249.096 249.096 0 01-18.48 1.208 252.5 252.5 0 01-36.975-1.627z" fill="#18216D"/><path d="M67.51 78.493c.79-3.096 1.51-6.483.79-9.295-.734-2.993-3.159-5.6-4.454-8.395-1.145-2.535-1.745-5.528-.742-8.087.056-.169.141-.327.253-.465a1.237 1.237 0 011.808.268c.361.593.605 1.25.719 1.935.537 1.895 1.824 3.467 3.088 4.975 2.882 3.46 6.562 5.733 7.281 10.488.466 3.072.182 6.254.482 9.358.355 3.625.94 7.218 1.28 10.843.347 3.783 1.452 15.218-2.986 17.074-2.788 1.169-9.635.229-11.799-2.006a7.101 7.101 0 01-1.737-5.173c.143-1.864.55-3.699 1.208-5.449 1.366-4.201 2.867-8.379 3.949-12.675.237-1.058.553-2.203.86-3.396z" fill="#fff" stroke="#18216D" stroke-miterlimit="10"/><path d="M117.129 94.659a.477.477 0 00-.379-.41.48.48 0 00-.197 0c-1.832-1.888-3.775-4.005-6.002-5.347-.19-.119-.49.134-.332.331a30.341 30.341 0 002.898 2.978 247.57 247.57 0 013.207 3.253c.276.293.924.095.868-.355-.023-.15-.039-.3-.063-.45z" fill="#fff"/><path d="M123.716 93.103c-6.705 1.169-13.52 3.578-19.499 5.78a23.69 23.69 0 01-4.667 1.399c-1.728.16-3.466.179-5.196.055-4.612-.071-9.525 1.035-12.754 4.336-1.138 1.168-1.454 4.082.41 4.833 1.864.75 4.817-.577 6.942-.324 2.146.278 4.317.299 6.468.063a196.434 196.434 0 0119.893-1.106c7.739-.047 15.526.356 23.171-.845a10.96 10.96 0 004.154-1.303c3.158-1.958 3.948-6.823 1.484-9.476-2.772-2.986-8.031-4.012-11.901-4.107a43.72 43.72 0 00-8.505.695z" fill="#fff" stroke="#18216D" stroke-miterlimit="10"/><path d="M149.777 16.223H43.163v87.66h106.614v-87.66z" stroke="#18216D" stroke-miterlimit="10"/><path d="M47.546 11.303h97.863a4.74 4.74 0 014.739 4.738v5.94H42.784v-5.916a4.74 4.74 0 014.762-4.762z" fill="#18216D"/><path d="M49.481 20.116a2.922 2.922 0 100-5.844 2.922 2.922 0 000 5.844zM63.167 17.06a2.915 2.915 0 11-3.04-2.788 2.922 2.922 0 013.04 2.788z" fill="#fff"/><path d="M63.167 17.06a2.914 2.914 0 11-3.04-2.788 2.922 2.922 0 013.04 2.788z" fill="#fff"/><path d="M56.857 13.64l6.792 7.108M56.7 20.59l7.107-6.8" stroke="#18216D" stroke-miterlimit="10"/><path d="M145.828 142.185H22.63v87.659h123.198v-87.659z" fill="#fff" stroke="#18216D" stroke-miterlimit="10"/><path d="M105.22 187.72c4.952 2.212 11.001 2.141 17.303-1.848 14.523-9.192 10.337-40.276-13.773-34.179-22.563 5.733-17.406 29.836-3.53 36.027z" fill="#005FEC"/><path d="M126.866 168.633c-2.519.845-4.912 1.998-7.462 2.779a58.921 58.921 0 01-7.108 1.675c.111-3.159.253-6.342.426-9.548.182-3.309.79-6.831.482-10.132 0-.214-.339-.285-.395-.056-.789 3.112-.742 6.603-.955 9.793a445.516 445.516 0 00-.569 10.535.496.496 0 00.624.482c5.102-.79 10.835-2.014 15.313-4.683.434-.261.158-1.019-.356-.845zM113.394 187.626a1.168 1.168 0 01.103-.79c.118-.221-.127-.521-.356-.363a1.297 1.297 0 00-.592 1.089c0 .379.205.995.687.948a.288.288 0 00.268-.213c.119-.221-.063-.427-.11-.671zM97.283 169.817c-.245-.481-.545-.142-.86 0a4.6 4.6 0 01-1.193.119c-.442.039-.885.094-1.327.173-.276.056-.292.537 0 .577.826.15 1.666.198 2.504.142.442-.071 1.16-.458.876-1.011zM113.623 151.259a.302.302 0 00-.348-.048 1.055 1.055 0 00-.402 1.295.468.468 0 00.331.332.514.514 0 00.408-.091.491.491 0 00.2-.367 1.265 1.265 0 00-.189-1.121zM98.128 159.377a8.45 8.45 0 00-1.153-.276c-.284-.056-.505.339-.213.497.333.175.676.33 1.027.466.284.103.64.284.916.071a.245.245 0 00.102-.253c-.079-.323-.394-.402-.679-.505zM102.732 156.289a9.736 9.736 0 00-.789-.624c-.293-.213-.427-.442-.672-.616a.267.267 0 00-.297.019.27.27 0 00-.098.281 2.564 2.564 0 001.58 1.382.269.269 0 00.351-.283.272.272 0 00-.075-.159zM100.15 181.031a7.177 7.177 0 00-1.39 1.288c-.19.244.055.679.363.473a7.157 7.157 0 001.39-1.295c.198-.229-.071-.679-.363-.466zM104.936 184.704c-.166.284-.34.568-.514.853-.173.284-.308.45-.205.789a.338.338 0 00.403.229c.324-.087.403-.284.545-.576l.442-.893a.394.394 0 00-.431-.581.426.426 0 00-.138.065.397.397 0 00-.102.114zM121.591 185.43c-.158-.055-.418-.118-.442-.332a.325.325 0 00-.283-.302.326.326 0 00-.349.223.97.97 0 00.167.951.964.964 0 00.907.329c.482-.087.371-.727 0-.869zM102.614 237.718c1.477 1.84 4.312 1.532 6.594.964 2.283-.569 4.991-1.146 6.745.426a34.58 34.58 0 00-5.692-22.465 34.58 34.58 0 00-18.6-13.823c-6.318-1.943-12.17-1.193-18.614-.79-7.503.482-14.776 3.12-21.244 6.879-9.745 5.67-22.373 14.697-25.745 25.871" fill="#18216D"/><path d="M65.11 219.649a9.996 9.996 0 01-2.022-1.84 6.768 6.768 0 01-1.01-5.26c.404-1.792.983-3.54 1.729-5.22 3.688-9.658 2.985-20.256 6.586-30.009.64-1.722 1.343-3.949 2.511-5.378a20.146 20.146 0 014.194-3.325c5.6-3.791 13.512-6.46 19.111-1.193 3.017 2.843 3.657 7.384 3.554 11.53a46.975 46.975 0 01-3.514 16.814 9.597 9.597 0 01-5.647 5.346c-2.227.79-3.214.553-4.24 2.709a17.255 17.255 0 00-1.2 8.766 18.95 18.95 0 01.45 3.949c-.633 7.241-9.059 7.415-14.405 6.128a19.896 19.896 0 01-6.097-3.017zM119.238 193.904a8.967 8.967 0 012.069-2.922 29.307 29.307 0 015.899-3.893.955.955 0 01.735-.158.623.623 0 01.323.734c-.084.28-.236.535-.442.742l-1.445 1.722c-1.722 2.053 2.282.79 2.922.545a15.458 15.458 0 004.912-2.898c.495-.46 1.023-.882 1.58-1.264a3.597 3.597 0 012.463-.584 2.884 2.884 0 012.18 2.645c.134 2.733-2.274 5.75-4.233 7.108a20.745 20.745 0 01-7.234 3.206 1.278 1.278 0 00-.971.908l-6.926 25.066a72.441 72.441 0 01-2.567 7.787c-1.129 2.843-2.732 5.647-5.851 6.571a6.75 6.75 0 01-6.358-1.477c-5.449-4.92.371-14.871 2.409-20.067a292.47 292.47 0 016.152-14.429 290.282 290.282 0 013.38-7.107c.363-.798.663-1.548 1.003-2.235z" fill="#fff" stroke="#18216D" stroke-miterlimit="10"/><path d="M67.51 169.075a31.784 31.784 0 012.615-2.543c-1.509-1.035-2.922-2.78-2.37-4.525a3.948 3.948 0 011.738-2.006 8.697 8.697 0 016.87-1.114 13.035 13.035 0 015.457 3.309c.218.239.488.423.79.537.238.044.481.044.719 0l7.439-.718a27.173 27.173 0 015.828-.135c3.017.364 6.279 1.896 6.555 5.236.276 3.341-2.164 6.318-5.054 7.748-3.088 1.484-6.634 1.579-10.053 1.619-3.42.039-6.958.079-10.085 1.476a5.894 5.894 0 00-3.215 2.914c-.323.79-.45 1.864-1.24 2.259-1.208.616-1.35.703-1.816 2.022a63.979 63.979 0 01-1.808 4.541c-.656 1.492-2.646 4.738-4.66 3.095-1.5-1.216-1.342-6.317-1.43-8.142-.22-4.217-.086-9.879 2.212-13.583.445-.706.95-1.372 1.509-1.99zM91.74 193.067a1.774 1.774 0 01-1.47-.063c-.323-.143-.79.173-.529.537a1.945 1.945 0 002.59.545c.672-.387.088-1.327-.591-1.019zM86.67 183.685c-.664-.419-2.133.663-.853 1.232.52.229 1.295-.3 1.105-.893a.575.575 0 00-.253-.339zM97.678 183.393a.842.842 0 00-1.042 0 .623.623 0 00-.063.789c.023.095.06.185.11.269a.471.471 0 00.624.166 1.111 1.111 0 00.584-.703.482.482 0 00-.213-.521zM93.09 184.522c-.095-.284-.6-.363-.656 0a22.68 22.68 0 01-.6 2.985c-.181.656-.56 1.524-.15 2.156.332.506 1.28.19 1.035-.434-.245-.624.324-1.935.442-2.614a4.266 4.266 0 00-.071-2.093z" fill="#18216D"/><path d="M70.63 183.558a3.447 3.447 0 00-1.627.616 3.89 3.89 0 00-1.43 1.343 4.455 4.455 0 00.143 4.944 3.161 3.161 0 004.336.608c2.677-1.903 3-7.953-1.422-7.511z" fill="#fff"/><path d="M71.278 186.18a1.724 1.724 0 00-1.304.79 1.504 1.504 0 00-.165 1.58.341.341 0 00.45.15c.213-.111.166-.411.181-.616a1.373 1.373 0 01.916-1.28c.316-.126.269-.663-.078-.624zM74.926 198.137c-1.65-1.145-3.743-3.641-3.57-5.939l-.22-.063a10.256 10.256 0 01-2.077-.727c.094.048 0 3.491.07 3.87.153 1.37.441 2.722.861 4.036.506 1.579 1.77 6.183 4.25 4.738 1.2-.695 2.368-1.422 3.545-2.164.624-.395 1.232-.79 1.856-1.192l.205-.119a22.886 22.886 0 01-4.92-2.44zM125.982 190.887a.236.236 0 00-.279-.128.236.236 0 00-.171.255 4.232 4.232 0 01-.79 3.158c-.189.277.213.545.442.34a3.3 3.3 0 00.798-3.625zM128.067 195.823a4.74 4.74 0 00-3.064.308 3.565 3.565 0 00-1.895 1.651.212.212 0 00.235.287.215.215 0 00.128-.074 3.677 3.677 0 012.322-1.406 10.16 10.16 0 002.321-.395c.174-.087.103-.308-.047-.371z" fill="#18216D"/><path d="M145.828 142.185H22.63v87.659h123.198v-87.659z" stroke="#18216D" stroke-miterlimit="10"/><path d="M27.013 134.501h114.448a4.74 4.74 0 014.738 4.738v5.939H22.251v-5.939a4.743 4.743 0 012.942-4.385 4.735 4.735 0 011.82-.353z" fill="#18216D"/><path d="M28.948 143.314a2.922 2.922 0 100-5.844 2.922 2.922 0 000 5.844zM42.634 140.258a2.912 2.912 0 01-3.356 3.003 2.917 2.917 0 01-2.294-3.876 2.917 2.917 0 012.61-1.915 2.92 2.92 0 013.04 2.788z" fill="#fff"/><path d="M42.634 140.258a2.912 2.912 0 01-3.356 3.003 2.917 2.917 0 01-2.294-3.876 2.917 2.917 0 012.61-1.915 2.92 2.92 0 013.04 2.788z" fill="#fff"/><path d="M36.325 136.838l6.791 7.108M36.166 143.788l7.108-6.8M133.674 130.307l9.635-11.877 3.791 11.877 8.331-12.272 3.909 12.272 8.19-12.075 3.854 12.075 7.858-11.577" stroke="#18216D" stroke-miterlimit="10"/><path d="M1 222.705l9.635-11.877 3.79 11.877 8.332-12.272 3.91 12.272 8.197-12.075 3.846 12.075" stroke="#00ECD0" stroke-width="2" stroke-miterlimit="10"/><path d="M59.36 277.268a3.942 3.942 0 012.718-2.507 3.945 3.945 0 013.6.84l.246.206a3.949 3.949 0 006.38-1.967l1.256-4.801a3.947 3.947 0 014.613-2.842 3.955 3.955 0 011.768.867l.15.135a3.949 3.949 0 006.381-1.967l1.185-4.525a3.947 3.947 0 016.38-1.974 3.961 3.961 0 001.767.868 3.959 3.959 0 003.643-1.123c.463-.48.798-1.068.972-1.712M126.788 1.25a3.947 3.947 0 015.33 3.735v.324a3.95 3.95 0 005.615 3.61l4.486-2.141a3.948 3.948 0 015.615 3.609v.213a3.95 3.95 0 005.615 3.61l4.225-2.015a3.947 3.947 0 015.147 1.698 3.95 3.95 0 01.476 1.912v0a3.954 3.954 0 003.675 3.965 3.95 3.95 0 001.932-.356" stroke="#18216D" stroke-miterlimit="10"/><path d="M169.694 190.011a14.21 14.21 0 01-3.388-10.341 14.212 14.212 0 014.916-9.707 14.218 14.218 0 0120.047 1.528" stroke="#00ECD0" stroke-width="2" stroke-miterlimit="10"/><path d="M287.189 23.33a7.503 7.503 0 100-15.004 7.503 7.503 0 000 15.005z" fill="#005FEC"/><path d="M308.173 218.844a16.91 16.91 0 0111.958 4.955 16.908 16.908 0 014.95 11.96" fill="#fff"/><path d="M308.173 218.844a16.91 16.91 0 0111.958 4.955 16.908 16.908 0 014.95 11.96M318.384 2.798L294.692 26.49" stroke="#18216D" stroke-miterlimit="10"/><path fill="#fff" d="M43.337 104.27h102.665v13.425H43.337zM24.384 230.231h97.926v16.584H24.384zM179.17 134.674h128.726v24.482H179.17z"/><path d="M287.987 151.661l14.397-11.869 3.783 11.869 12.675-12.264 3.909 12.264 12.47-12.067 3.846 12.067 11.956-11.577" stroke="#00ECD0" stroke-width="2" stroke-miterlimit="10"/><path d="M222.432 147.713l-23.692 23.692M216.114 158.769l-23.692 23.692" stroke="#18216D" stroke-miterlimit="10"/></svg><svg fill="none" viewBox="0 0 106 31" id="hubspot-logo" xmlns="http://www.w3.org/2000/svg"><g clip-path="url(#jclip0)"><path d="M12.184 5.44v8.434H4.5V5.441H.852v20.132H4.5v-8.16h7.684v8.16h3.649V5.44h-3.649zM27.509 19.065c0 .807-.319 1.58-.884 2.151a3.006 3.006 0 01-2.135.891c-.8 0-1.568-.32-2.134-.89a3.054 3.054 0 01-.884-2.152v-8.623h-3.46v8.623c0 1.73.681 3.39 1.895 4.613a6.447 6.447 0 004.577 1.911 6.446 6.446 0 004.577-1.91 6.55 6.55 0 001.896-4.614v-8.623h-3.448v8.623zM53.148 11.33c0-1.767 1.16-2.327 2.431-2.327 1.025 0 2.378.785 3.263 1.738l2.266-2.691c-1.131-1.543-3.427-2.61-5.305-2.61-3.754 0-6.47 2.217-6.47 5.89 0 6.816 8.266 4.654 8.266 8.468 0 1.177-1.133 2.217-2.43 2.217-2.047 0-2.71-1.01-3.65-2.076l-2.516 2.636c1.609 1.99 3.593 3.001 5.97 3.001 3.566 0 6.435-2.243 6.435-5.749 0-7.567-8.265-5.216-8.265-8.497M104.281 22.357c-2.045 0-2.626-.892-2.626-2.258v-6.044h3.178v-3.063h-3.178V6.95l-3.509 1.587V20.85c0 3.149 2.156 4.736 5.112 4.736a7.03 7.03 0 001.384-.111l.856-3.177c-.386.027-.829.054-1.217.054M40.68 10.543c-1.714 0-2.91.501-4.066 1.645V5.562h-3.466v12.282c0 4.598 3.298 7.747 7.003 7.747 4.112 0 7.728-3.205 7.728-7.522 0-4.263-3.329-7.524-7.198-7.524v-.002zm-.02 11.533a3.91 3.91 0 01-2.186-.668 3.957 3.957 0 01-1.448-1.78 3.992 3.992 0 01.852-4.319 3.904 3.904 0 014.286-.86 3.94 3.94 0 011.765 1.461 3.986 3.986 0 01-.49 5.005 3.917 3.917 0 01-2.78 1.16zM78.314 17.885c0-4.324-3.609-7.522-7.727-7.522-3.706 0-7.004 3.15-7.004 7.747V30.4h3.466v-6.636c1.155 1.142 2.353 1.645 4.065 1.645 3.87 0 7.198-3.26 7.198-7.524h.002zm-3.282-.043c0 .784-.23 1.55-.662 2.202a3.94 3.94 0 01-1.765 1.46 3.903 3.903 0 01-4.286-.86 3.993 3.993 0 01-.852-4.32 3.958 3.958 0 011.448-1.778 3.91 3.91 0 014.965.493 3.98 3.98 0 011.152 2.803z" fill="#33475B"/><path d="M89.511 10.194v-3.51c.46-.217.85-.56 1.124-.992.273-.431.42-.932.422-1.444v-.081c0-.717-.282-1.404-.785-1.911a2.67 2.67 0 00-1.896-.792h-.08a2.67 2.67 0 00-1.896.792 2.714 2.714 0 00-.786 1.911v.081c.003.512.15 1.013.423 1.444.274.431.663.775 1.123.992v3.51a7.565 7.565 0 00-3.61 1.601L74 4.3c.068-.248.104-.503.107-.759a3.062 3.062 0 00-.506-1.693A3.026 3.026 0 0072.248.723a2.999 2.999 0 00-3.293.655 3.067 3.067 0 00-.66 3.318 3.04 3.04 0 001.111 1.368c.496.335 1.08.515 1.678.515a2.97 2.97 0 001.487-.407l9.404 7.375a7.721 7.721 0 00.116 8.648l-2.86 2.882a2.437 2.437 0 00-.715-.117c-.49 0-.97.148-1.377.422a2.496 2.496 0 00-.913 1.123 2.519 2.519 0 00.538 2.724 2.463 2.463 0 002.703.542c.453-.188.84-.509 1.113-.92.273-.41.419-.894.42-1.388a2.486 2.486 0 00-.117-.72l2.83-2.853a7.57 7.57 0 006.583 1.345 7.609 7.609 0 003.051-1.616 7.685 7.685 0 002.035-2.805 7.743 7.743 0 00-.353-6.76 7.667 7.667 0 00-2.315-2.576 7.596 7.596 0 00-3.203-1.284zM88.34 21.735c-.775 0-1.53-.232-2.174-.666a3.939 3.939 0 01-1.44-1.772 3.975 3.975 0 01.85-4.298 3.887 3.887 0 014.265-.855 3.921 3.921 0 011.756 1.453 3.968 3.968 0 01-.486 4.98 3.9 3.9 0 01-2.768 1.156" fill="#FF7A59"/></g><defs><clipPath id="jclip0"><path fill="#fff" transform="translate(.852 .492)" d="M0 0h104.646v29.899H0z"/></clipPath></defs></svg><svg fill="none" viewBox="0 0 32 32" id="logo" xmlns="http://www.w3.org/2000/svg"><path fill-rule="evenodd" clip-rule="evenodd" d="M0 4.571A4.571 4.571 0 014.571 0H27.43A4.571 4.571 0 0132 4.571V27.43A4.571 4.571 0 0127.429 32H4.57A4.571 4.571 0 010 27.429V4.57zm5.024 2.84v17.732h4.71v-10.32h.138l3.948 10.181h2.84l3.948-10.112h.139v10.25h4.71V7.413h-5.992l-4.12 10.043h-.209L11.016 7.41H5.023zm10.214 1.732a3.048 3.048 0 100-6.095 3.048 3.048 0 000 6.095z" fill="#005FEC"/></svg><svg fill="none" viewBox="0 0 153 33" id="microsoft-logo" xmlns="http://www.w3.org/2000/svg"><g clip-path="url(#lclip0)"><path d="M54.254 18.902l-.906 2.56h-.075a18.165 18.165 0 00-.88-2.51L47.535 6.774H42.78v19.41h3.145V14.205c0-.753 0-1.607-.025-2.661-.025-.527-.075-.93-.1-1.23h.075c.15.753.327 1.305.453 1.657l5.838 14.161h2.214l5.788-14.287c.126-.326.251-.98.377-1.531h.076a180.963 180.963 0 00-.151 3.49v12.303h3.346V6.724h-4.58l-4.982 12.178zm12.733-6.704h3.271v13.91h-3.271v-13.91zm1.66-5.876c-.553 0-1.006.201-1.383.553a1.78 1.78 0 00-.58 1.355c0 .528.202.98.58 1.331.377.352.83.527 1.384.527.553 0 1.031-.2 1.384-.527.377-.351.578-.803.578-1.33 0-.528-.2-.98-.578-1.356-.328-.352-.806-.553-1.384-.553zm13.211 5.75a9.14 9.14 0 00-1.837-.2c-1.484 0-2.843.326-3.975.979-1.133.652-2.039 1.556-2.617 2.686-.604 1.155-.906 2.486-.906 4.018 0 1.33.302 2.51.88 3.59.58 1.055 1.384 1.908 2.467 2.486 1.031.577 2.24.879 3.598.879 1.56 0 2.894-.327 3.95-.93l.026-.024v-3.014l-.126.101a5.629 5.629 0 01-1.585.829c-.58.2-1.108.3-1.56.3-1.309 0-2.34-.376-3.07-1.204-.755-.804-1.133-1.909-1.133-3.29 0-1.43.378-2.56 1.158-3.39.78-.828 1.811-1.255 3.07-1.255 1.056 0 2.139.352 3.12 1.055l.126.1V12.6l-.025-.025c-.428-.175-.906-.376-1.56-.502zm10.795-.1c-.805 0-1.56.25-2.214.778-.553.452-.93 1.105-1.258 1.883h-.025v-2.435h-3.271v13.91h3.27v-7.106c0-1.205.252-2.21.806-2.938.554-.753 1.258-1.13 2.114-1.13.302 0 .604.076.981.126.352.1.604.2.78.326l.126.1v-3.263l-.076-.025c-.226-.151-.679-.226-1.233-.226zm8.908-.076c-2.29 0-4.127.678-5.41 2.009-1.308 1.33-1.937 3.164-1.937 5.474 0 2.16.654 3.917 1.912 5.197 1.258 1.256 2.97 1.909 5.108 1.909 2.24 0 4.026-.678 5.31-2.034 1.308-1.356 1.937-3.164 1.937-5.399 0-2.21-.604-3.967-1.837-5.247-1.182-1.281-2.919-1.909-5.083-1.909zm2.617 10.697c-.604.778-1.56 1.155-2.742 1.155-1.183 0-2.14-.377-2.819-1.206-.68-.778-1.006-1.908-1.006-3.339 0-1.481.352-2.611 1.006-3.415.68-.803 1.611-1.205 2.793-1.205 1.158 0 2.064.377 2.718 1.155.654.778 1.007 1.908 1.007 3.39-.051 1.506-.328 2.686-.957 3.465zm11.601-4.62c-1.032-.427-1.686-.754-1.988-1.03-.252-.25-.378-.602-.378-1.054 0-.377.151-.754.529-1.005.377-.25.805-.376 1.434-.376.554 0 1.132.1 1.686.25.554.151 1.057.377 1.459.679l.126.1v-3.063l-.075-.025a9.115 9.115 0 00-1.485-.427c-.604-.1-1.157-.15-1.61-.15-1.56 0-2.844.376-3.85 1.204-1.007.779-1.485 1.833-1.485 3.064 0 .653.101 1.23.327 1.707.227.477.554.93 1.007 1.306.453.351 1.107.753 2.013 1.13.755.326 1.333.577 1.686.778.352.201.578.427.755.603.125.2.201.452.201.778 0 .93-.705 1.381-2.139 1.381-.554 0-1.132-.1-1.812-.326a7.02 7.02 0 01-1.837-.93l-.125-.1v3.189l.075.025c.478.226 1.057.377 1.761.552.705.126 1.334.226 1.888.226 1.686 0 3.07-.376 4.051-1.205 1.007-.803 1.535-1.833 1.535-3.163 0-.93-.252-1.758-.805-2.386a10.218 10.218 0 00-2.944-1.732zm12.38-6.077c-2.29 0-4.127.678-5.41 2.009-1.283 1.33-1.938 3.164-1.938 5.474 0 2.16.655 3.917 1.913 5.197 1.258 1.256 2.969 1.909 5.108 1.909 2.239 0 4.026-.678 5.309-2.034 1.309-1.356 1.938-3.164 1.938-5.399 0-2.21-.604-3.967-1.837-5.247-1.183-1.281-2.919-1.909-5.083-1.909zm2.592 10.697c-.604.778-1.56 1.155-2.743 1.155-1.208 0-2.139-.377-2.818-1.206-.68-.778-1.007-1.908-1.007-3.339 0-1.481.352-2.611 1.007-3.415.679-.803 1.61-1.205 2.793-1.205 1.132 0 2.063.377 2.717 1.155.655.778 1.007 1.908 1.007 3.39 0 1.506-.327 2.686-.956 3.465zm21.816-7.709v-2.686h-3.296V8.08l-.101.025-3.12.929-.075.025v3.139h-4.932V10.44c0-.803.201-1.431.553-1.833.352-.402.881-.603 1.535-.603.453 0 .931.1 1.46.327l.125.075V5.57l-.075-.025c-.453-.15-1.057-.251-1.837-.251-.981 0-1.837.226-2.617.602a4.363 4.363 0 00-1.787 1.783c-.427.753-.654 1.607-.654 2.586v1.934h-2.29v2.661h2.29v11.249h3.297V14.884h4.932v7.156c0 2.938 1.384 4.42 4.152 4.42.452 0 .931-.076 1.384-.151.478-.1.83-.226 1.031-.326l.025-.026v-2.686l-.125.1a2.137 2.137 0 01-.68.301c-.251.076-.478.1-.654.1-.654 0-1.107-.15-1.434-.526-.302-.352-.453-.93-.453-1.783v-6.579h3.346z" fill="#737373"/><path d="M.606.246h15.425v15.392H.606V.246z" fill="#F25022"/><path d="M17.642.246h15.425v15.392H17.642V.246z" fill="#7FBA00"/><path d="M.606 17.245h15.425v15.391H.606V17.245z" fill="#00A4EF"/><path d="M17.642 17.245h15.425v15.391H17.642V17.245z" fill="#FFB900"/></g><defs><clipPath id="lclip0"><path fill="#fff" transform="translate(.606 .246)" d="M0 0h151.987v32.391H0z"/></clipPath></defs></svg><svg fill="none" viewBox="0 0 17 16" id="star-icon" xmlns="http://www.w3.org/2000/svg"><path fill-rule="evenodd" clip-rule="evenodd" d="M16.383 5.832l-5.327-.774L8.674.23a.377.377 0 00-.65 0L5.64 5.057l-5.329.775a.363.363 0 00-.202.619l3.857 3.758-.91 5.306a.363.363 0 00.526.383l4.765-2.505 4.766 2.504a.363.363 0 00.526-.383l-.91-5.305 3.856-3.758a.363.363 0 00-.201-.619z" fill="#F5A623"/></svg><svg fill="none" viewBox="0 0 139 33" id="walmart-logo" xmlns="http://www.w3.org/2000/svg"><g clip-path="url(#nclip0)"><path opacity=".8" d="M49.534 11.767v1.835h.056c.661-.982 1.758-2.14 4.188-2.14 1.891 0 3.342.963 3.963 2.417h.056c.531-.736 1.14-1.292 1.822-1.686.807-.467 1.706-.735 2.837-.735 2.56 0 4.826 1.665 4.826 5.864v7.964H63.38V17.88c0-2.128-.769-3.359-2.366-3.359-1.17 0-2.02.74-2.345 1.649-.112.313-.164.74-.164 1.096v8.025h-3.902v-7.712c0-1.807-.739-3.062-2.314-3.062-1.26 0-2.05.934-2.375 1.734-.138.341-.181.735-.181 1.105v7.931h-3.907v-13.52h3.708zm37.892 0v2.55h.108c.716-1.95 2.417-2.855 3.911-2.855.376 0 .583.029.885.085v3.542c-.358-.049-.69-.098-1.157-.098-1.692 0-2.87.926-3.169 2.376-.064.3-.086.625-.086 1v6.923h-4.006V11.767h3.514zm10.344-4.48v4.256h3.384v3.444H97.77v5.08c0 1.645.445 2.442 1.766 2.442.621 0 1.079-.074 1.476-.167l.052 2.855c-.531.187-1.662.39-2.81.39-1.352 0-2.479-.443-3.165-1.13-.786-.783-1.148-2.066-1.148-3.894V7.287h3.829zm-54.664 18h-3.885v-18h3.885v18zm-10.361-4.83a2.4 2.4 0 01-.095.732c-.302.938-1.334 1.73-2.62 1.73-1.076 0-1.93-.573-1.93-1.787 0-1.856 2.176-2.372 4.65-2.36v1.686h-.005zm3.881-3.236c0-3.066-1.39-5.759-6.091-5.759-2.414 0-4.33.638-5.375 1.206l.764 2.461c.954-.568 2.478-1.035 3.92-1.035 2.387-.004 2.776 1.27 2.776 2.087v.195c-5.202-.008-8.488 1.685-8.488 5.137 0 2.108 1.671 4.082 4.58 4.082 1.792 0 3.286-.67 4.184-1.746h.086s.596 2.335 3.869 1.441c-.173-.974-.23-2.01-.23-3.257v-4.812h.005zM4.614 7.287c.402 1.905 1.542 7.436 1.542 7.436.479 2.274.92 4.658 1.252 6.543h.06c.324-2.002.833-3.899 1.377-6.246l1.921-7.733h4.253l1.796 7.932c.47 2.205.846 3.906 1.144 5.957h.056c.324-2.07.747-3.841 1.209-6.108l1.727-7.78h4.08l-5.056 17.998c-3.22.662-4.455-.556-4.896-2.49-.44-1.936-1.304-5.62-1.304-5.62-.444-2.018-.79-3.44-1.031-5.51h-.06c-.346 2.05-.709 3.488-1.244 5.506L9.32 25.29c-3.29.618-4.43-.296-5.06-2.777C3.717 20.387.323 7.29.323 7.29h4.291v-.004zm72.822 13.17a2.4 2.4 0 01-.095.732c-.302.938-1.334 1.73-2.62 1.73-1.075 0-1.93-.573-1.93-1.787 0-1.856 2.176-2.372 4.65-2.36v1.686h-.005zm3.881-3.236c0-3.066-1.39-5.759-6.091-5.759-2.414 0-4.33.638-5.375 1.206l.764 2.461c.954-.568 2.478-1.035 3.92-1.035 2.383-.004 2.776 1.27 2.776 2.087v.195c-5.198-.008-8.483 1.685-8.483 5.137 0 2.108 1.675 4.082 4.58 4.082 1.787 0 3.285-.67 4.18-1.746h.09s.596 2.335 3.868 1.441c-.173-.974-.229-2.01-.229-3.257v-4.812z" fill="#041E42"/><path d="M116.905 19.087c.383.658.357 1.391-.052 1.726l-7.066 4.881c-.736.42-1.837-.089-2.461-1.153-.629-1.069-.517-2.26.219-2.68l7.823-3.588c.491-.186 1.154.157 1.537.814zm9.299 0c.387-.657 1.046-.996 1.536-.818l7.828 3.588c.736.42.843 1.61.219 2.68-.628 1.064-1.734 1.569-2.465 1.153l-7.066-4.881c-.405-.33-.435-1.069-.052-1.722zm-4.652 2.646c.771 0 1.403.39 1.489.904l.762 8.473c0 .84-.994 1.526-2.246 1.526-1.248 0-2.247-.687-2.247-1.526l.758-8.473c.086-.513.718-.904 1.484-.904zm4.704-9.66l7.066-4.885c.731-.42 1.837.085 2.465 1.153.624 1.069.517 2.26-.219 2.68l-7.828 3.592c-.49.178-1.153-.16-1.536-.818-.383-.657-.353-1.391.052-1.722zm-10.888 2.54l-7.823-3.592c-.731-.42-.843-1.611-.219-2.68.624-1.068 1.73-1.573 2.461-1.153l7.066 4.885c.409.327.435 1.065.052 1.722s-1.046.996-1.537.818zm4.7-4.368l-.758-8.473c0-.84.994-1.526 2.247-1.526 1.252 0 2.246.687 2.246 1.526l-.762 8.473c-.086.51-.718.904-1.489.904-.766 0-1.398-.395-1.484-.904zm17.63 15.415v-.212h.194c.064 0 .107.043.107.106 0 .06-.043.106-.107.106h-.194zm-.159.386c0 .021.017.043.043.043h.082c.021 0 .043-.021.043-.043v-.241h.133l.108.254c.008.017.021.03.038.03h.099c.031 0 .052-.03.039-.06-.039-.076-.077-.157-.116-.237a.235.235 0 00.163-.238c0-.16-.133-.254-.266-.254h-.323c-.022 0-.043.021-.043.042v.704zm-.349-.352a.63.63 0 01.633-.623c.348 0 .632.276.632.623a.626.626 0 01-.632.624.627.627 0 01-.633-.624zm-.15 0c0 .424.348.772.783.772a.78.78 0 00.783-.772.78.78 0 00-.783-.771.777.777 0 00-.783.771z" fill="#FFC124"/></g><defs><clipPath id="nclip0"><path fill="#fff" transform="translate(.323 .246)" d="M0 0h138.283v32.391H0z"/></clipPath></defs></svg></svg>